<svg width="1156" height="300" viewBox="0 0 1156 300" fill="none" xmlns="http://www.w3.org/2000/svg">
<mask id="path-1-outside-1_144_17" maskUnits="userSpaceOnUse" x="6" y="64" width="1145" height="229" fill="black">
<rect fill="white" x="6" y="64" width="1145" height="229"/>
<path d="M82.06 99.48C75.9 99.48 70.3267 100.8 65.34 103.44C60.3533 106.08 56.1 109.893 52.58 114.88C49.2067 119.867 46.64 125.88 44.88 132.92C43.12 139.96 42.24 147.88 42.24 156.68C42.24 168.56 43.7067 178.753 46.64 187.26C49.5733 195.62 54.0467 202.073 60.06 206.62C66.0733 211.167 73.6267 213.44 82.72 213.44C89.0267 213.44 95.1867 212.78 101.2 211.46C107.213 209.993 113.3 208.087 119.46 205.74V229.72C113.447 232.36 107.213 234.267 100.76 235.44C94.4533 236.613 87.34 237.2 79.42 237.2C64.02 237.2 51.3333 233.9 41.36 227.3C31.3867 220.553 23.9067 211.167 18.92 199.14C14.08 186.967 11.66 172.74 11.66 156.46C11.66 144.58 13.2 133.727 16.28 123.9C19.36 114.073 23.9067 105.567 29.92 98.38C35.9333 91.1934 43.34 85.62 52.14 81.66C60.94 77.7 70.9867 75.72 82.28 75.72C89.76 75.72 97.3133 76.6734 104.94 78.58C112.713 80.34 119.533 82.8334 125.4 86.06L115.5 109.16C110.367 106.667 105.013 104.467 99.44 102.56C94.0133 100.507 88.22 99.48 82.06 99.48ZM250.274 175.16C250.274 185.133 249.027 193.933 246.534 201.56C244.041 209.187 240.374 215.713 235.534 221.14C230.841 226.42 225.121 230.453 218.374 233.24C211.627 235.88 204.074 237.2 195.714 237.2C187.941 237.2 180.681 235.88 173.934 233.24C167.334 230.453 161.614 226.42 156.774 221.14C152.081 215.713 148.414 209.187 145.774 201.56C143.134 193.933 141.814 185.133 141.814 175.16C141.814 161.96 143.941 150.813 148.194 141.72C152.594 132.48 158.901 125.513 167.114 120.82C175.327 115.98 185.081 113.56 196.374 113.56C206.934 113.56 216.247 115.98 224.314 120.82C232.381 125.513 238.687 132.48 243.234 141.72C247.927 150.813 250.274 161.96 250.274 175.16ZM171.514 175.16C171.514 183.52 172.394 190.707 174.154 196.72C175.914 202.587 178.554 207.06 182.074 210.14C185.741 213.22 190.434 214.76 196.154 214.76C201.874 214.76 206.494 213.22 210.014 210.14C213.681 207.06 216.321 202.587 217.934 196.72C219.694 190.707 220.574 183.52 220.574 175.16C220.574 166.653 219.694 159.54 217.934 153.82C216.174 147.953 213.461 143.553 209.794 140.62C206.274 137.54 201.654 136 195.934 136C187.281 136 181.047 139.373 177.234 146.12C173.421 152.867 171.514 162.547 171.514 175.16ZM429.863 214.98C433.089 214.98 436.169 214.687 439.103 214.1C442.183 213.367 445.043 212.56 447.683 211.68V232.36C444.603 233.68 440.863 234.78 436.463 235.66C432.063 236.687 427.149 237.2 421.723 237.2C414.976 237.2 408.963 236.1 403.683 233.9C398.403 231.553 394.223 227.593 391.143 222.02C388.209 216.447 386.743 208.673 386.743 198.7V136.66H371.783V124.56L388.503 114.88L397.303 89.58H415.783V115.76H446.583V136.66H415.783V198.48C415.783 204.053 417.029 208.233 419.523 211.02C422.163 213.66 425.609 214.98 429.863 214.98ZM535.815 235L497.535 106.3H496.655C496.802 109.233 497.022 113.413 497.315 118.84C497.608 124.12 497.828 129.913 497.975 136.22C498.268 142.38 498.415 148.173 498.415 153.6V235H472.015V77.92H512.495L549.895 201.34H550.555L588.615 77.92H629.315V235H601.595V152.28C601.595 147.293 601.668 141.867 601.815 136C601.962 129.987 602.182 124.34 602.475 119.06C602.768 113.633 602.988 109.453 603.135 106.52H602.255L562.875 235H535.815ZM647.754 115.76H678.994L700.334 183.08C701.361 185.867 702.167 188.653 702.754 191.44C703.487 194.227 704.074 197.013 704.514 199.8C705.101 202.587 705.541 205.373 705.834 208.16H706.494C707.081 204.493 707.814 200.46 708.694 196.06C709.721 191.66 710.894 187.333 712.214 183.08L733.114 115.76H763.914L716.614 250.62C713.827 258.54 710.307 265.287 706.054 270.86C701.947 276.433 696.887 280.613 690.874 283.4C685.007 286.333 677.967 287.8 669.754 287.8C666.381 287.8 663.374 287.58 660.734 287.14C658.241 286.847 656.041 286.48 654.134 286.04V264.04C655.601 264.333 657.434 264.627 659.634 264.92C661.834 265.213 664.107 265.36 666.454 265.36C670.707 265.36 674.301 264.407 677.234 262.5C680.314 260.74 682.881 258.247 684.934 255.02C686.987 251.94 688.527 248.347 689.554 244.24L692.634 234.56L647.754 115.76ZM838.344 235H808.644V101.68H767.724V77.92H879.044V101.68H838.344V235ZM949.26 113.56C951.314 113.56 953.44 113.633 955.64 113.78C957.84 113.927 959.674 114.22 961.14 114.66L958.5 140.4C957.034 140.107 955.274 139.887 953.22 139.74C951.314 139.447 949.26 139.3 947.06 139.3C943.394 139.3 939.8 140.033 936.28 141.5C932.76 142.82 929.607 144.873 926.82 147.66C924.034 150.3 921.76 153.747 920 158C918.387 162.253 917.58 167.313 917.58 173.18V235H888.32V115.76H910.76L914.72 136.44H916.26C918.46 132.187 921.174 128.373 924.4 125C927.774 121.48 931.514 118.693 935.62 116.64C939.874 114.587 944.42 113.56 949.26 113.56ZM1009.53 115.76V235H980.494V115.76H1009.53ZM995.234 69.78C999.487 69.78 1003.15 70.88 1006.23 73.08C1009.31 75.1334 1010.85 78.8734 1010.85 84.3C1010.85 89.58 1009.31 93.3934 1006.23 95.74C1003.15 97.94 999.487 99.04 995.234 99.04C990.687 99.04 986.874 97.94 983.794 95.74C980.714 93.3934 979.174 89.58 979.174 84.3C979.174 78.8734 980.714 75.1334 983.794 73.08C986.874 70.88 990.687 69.78 995.234 69.78ZM1102.89 113.56C1115.8 113.56 1126.14 118.767 1133.91 129.18C1141.83 139.447 1145.79 154.773 1145.79 175.16C1145.79 188.653 1143.96 200.02 1140.29 209.26C1136.62 218.5 1131.49 225.467 1124.89 230.16C1118.29 234.853 1110.66 237.2 1102.01 237.2C1096.58 237.2 1091.82 236.467 1087.71 235C1083.75 233.387 1080.38 231.407 1077.59 229.06C1074.8 226.567 1072.46 223.927 1070.55 221.14H1069.01C1069.45 223.78 1069.82 226.787 1070.11 230.16C1070.4 233.387 1070.55 236.467 1070.55 239.4V287.8H1041.29V115.76H1065.05L1069.01 131.6H1070.55C1072.6 128.227 1075.02 125.22 1077.81 122.58C1080.74 119.793 1084.26 117.593 1088.37 115.98C1092.48 114.367 1097.32 113.56 1102.89 113.56ZM1093.65 136C1088.08 136 1083.53 137.32 1080.01 139.96C1076.64 142.453 1074.22 146.34 1072.75 151.62C1071.28 156.9 1070.55 163.5 1070.55 171.42V174.94C1070.55 183.447 1071.21 190.633 1072.53 196.5C1074 202.367 1076.42 206.84 1079.79 209.92C1083.31 213 1088.08 214.54 1094.09 214.54C1099.08 214.54 1103.18 212.927 1106.41 209.7C1109.64 206.473 1112.06 201.927 1113.67 196.06C1115.28 190.047 1116.09 182.933 1116.09 174.72C1116.09 162.4 1114.18 152.867 1110.37 146.12C1106.7 139.373 1101.13 136 1093.65 136Z"/>
</mask>
<path d="M82.06 99.48C75.9 99.48 70.3267 100.8 65.34 103.44C60.3533 106.08 56.1 109.893 52.58 114.88C49.2067 119.867 46.64 125.88 44.88 132.92C43.12 139.96 42.24 147.88 42.24 156.68C42.24 168.56 43.7067 178.753 46.64 187.26C49.5733 195.62 54.0467 202.073 60.06 206.62C66.0733 211.167 73.6267 213.44 82.72 213.44C89.0267 213.44 95.1867 212.78 101.2 211.46C107.213 209.993 113.3 208.087 119.46 205.74V229.72C113.447 232.36 107.213 234.267 100.76 235.44C94.4533 236.613 87.34 237.2 79.42 237.2C64.02 237.2 51.3333 233.9 41.36 227.3C31.3867 220.553 23.9067 211.167 18.92 199.14C14.08 186.967 11.66 172.74 11.66 156.46C11.66 144.58 13.2 133.727 16.28 123.9C19.36 114.073 23.9067 105.567 29.92 98.38C35.9333 91.1934 43.34 85.62 52.14 81.66C60.94 77.7 70.9867 75.72 82.28 75.72C89.76 75.72 97.3133 76.6734 104.94 78.58C112.713 80.34 119.533 82.8334 125.4 86.06L115.5 109.16C110.367 106.667 105.013 104.467 99.44 102.56C94.0133 100.507 88.22 99.48 82.06 99.48ZM250.274 175.16C250.274 185.133 249.027 193.933 246.534 201.56C244.041 209.187 240.374 215.713 235.534 221.14C230.841 226.42 225.121 230.453 218.374 233.24C211.627 235.88 204.074 237.2 195.714 237.2C187.941 237.2 180.681 235.88 173.934 233.24C167.334 230.453 161.614 226.42 156.774 221.14C152.081 215.713 148.414 209.187 145.774 201.56C143.134 193.933 141.814 185.133 141.814 175.16C141.814 161.96 143.941 150.813 148.194 141.72C152.594 132.48 158.901 125.513 167.114 120.82C175.327 115.98 185.081 113.56 196.374 113.56C206.934 113.56 216.247 115.98 224.314 120.82C232.381 125.513 238.687 132.48 243.234 141.72C247.927 150.813 250.274 161.96 250.274 175.16ZM171.514 175.16C171.514 183.52 172.394 190.707 174.154 196.72C175.914 202.587 178.554 207.06 182.074 210.14C185.741 213.22 190.434 214.76 196.154 214.76C201.874 214.76 206.494 213.22 210.014 210.14C213.681 207.06 216.321 202.587 217.934 196.72C219.694 190.707 220.574 183.52 220.574 175.16C220.574 166.653 219.694 159.54 217.934 153.82C216.174 147.953 213.461 143.553 209.794 140.62C206.274 137.54 201.654 136 195.934 136C187.281 136 181.047 139.373 177.234 146.12C173.421 152.867 171.514 162.547 171.514 175.16ZM429.863 214.98C433.089 214.98 436.169 214.687 439.103 214.1C442.183 213.367 445.043 212.56 447.683 211.68V232.36C444.603 233.68 440.863 234.78 436.463 235.66C432.063 236.687 427.149 237.2 421.723 237.2C414.976 237.2 408.963 236.1 403.683 233.9C398.403 231.553 394.223 227.593 391.143 222.02C388.209 216.447 386.743 208.673 386.743 198.7V136.66H371.783V124.56L388.503 114.88L397.303 89.58H415.783V115.76H446.583V136.66H415.783V198.48C415.783 204.053 417.029 208.233 419.523 211.02C422.163 213.66 425.609 214.98 429.863 214.98ZM535.815 235L497.535 106.3H496.655C496.802 109.233 497.022 113.413 497.315 118.84C497.608 124.12 497.828 129.913 497.975 136.22C498.268 142.38 498.415 148.173 498.415 153.6V235H472.015V77.92H512.495L549.895 201.34H550.555L588.615 77.92H629.315V235H601.595V152.28C601.595 147.293 601.668 141.867 601.815 136C601.962 129.987 602.182 124.34 602.475 119.06C602.768 113.633 602.988 109.453 603.135 106.52H602.255L562.875 235H535.815ZM647.754 115.76H678.994L700.334 183.08C701.361 185.867 702.167 188.653 702.754 191.44C703.487 194.227 704.074 197.013 704.514 199.8C705.101 202.587 705.541 205.373 705.834 208.16H706.494C707.081 204.493 707.814 200.46 708.694 196.06C709.721 191.66 710.894 187.333 712.214 183.08L733.114 115.76H763.914L716.614 250.62C713.827 258.54 710.307 265.287 706.054 270.86C701.947 276.433 696.887 280.613 690.874 283.4C685.007 286.333 677.967 287.8 669.754 287.8C666.381 287.8 663.374 287.58 660.734 287.14C658.241 286.847 656.041 286.48 654.134 286.04V264.04C655.601 264.333 657.434 264.627 659.634 264.92C661.834 265.213 664.107 265.36 666.454 265.36C670.707 265.36 674.301 264.407 677.234 262.5C680.314 260.74 682.881 258.247 684.934 255.02C686.987 251.94 688.527 248.347 689.554 244.24L692.634 234.56L647.754 115.76ZM838.344 235H808.644V101.68H767.724V77.92H879.044V101.68H838.344V235ZM949.26 113.56C951.314 113.56 953.44 113.633 955.64 113.78C957.84 113.927 959.674 114.22 961.14 114.66L958.5 140.4C957.034 140.107 955.274 139.887 953.22 139.74C951.314 139.447 949.26 139.3 947.06 139.3C943.394 139.3 939.8 140.033 936.28 141.5C932.76 142.82 929.607 144.873 926.82 147.66C924.034 150.3 921.76 153.747 920 158C918.387 162.253 917.58 167.313 917.58 173.18V235H888.32V115.76H910.76L914.72 136.44H916.26C918.46 132.187 921.174 128.373 924.4 125C927.774 121.48 931.514 118.693 935.62 116.64C939.874 114.587 944.42 113.56 949.26 113.56ZM1009.53 115.76V235H980.494V115.76H1009.53ZM995.234 69.78C999.487 69.78 1003.15 70.88 1006.23 73.08C1009.31 75.1334 1010.85 78.8734 1010.85 84.3C1010.85 89.58 1009.31 93.3934 1006.23 95.74C1003.15 97.94 999.487 99.04 995.234 99.04C990.687 99.04 986.874 97.94 983.794 95.74C980.714 93.3934 979.174 89.58 979.174 84.3C979.174 78.8734 980.714 75.1334 983.794 73.08C986.874 70.88 990.687 69.78 995.234 69.78ZM1102.89 113.56C1115.8 113.56 1126.14 118.767 1133.91 129.18C1141.83 139.447 1145.79 154.773 1145.79 175.16C1145.79 188.653 1143.96 200.02 1140.29 209.26C1136.62 218.5 1131.49 225.467 1124.89 230.16C1118.29 234.853 1110.66 237.2 1102.01 237.2C1096.58 237.2 1091.82 236.467 1087.71 235C1083.75 233.387 1080.38 231.407 1077.59 229.06C1074.8 226.567 1072.46 223.927 1070.55 221.14H1069.01C1069.45 223.78 1069.82 226.787 1070.11 230.16C1070.4 233.387 1070.55 236.467 1070.55 239.4V287.8H1041.29V115.76H1065.05L1069.01 131.6H1070.55C1072.6 128.227 1075.02 125.22 1077.81 122.58C1080.74 119.793 1084.26 117.593 1088.37 115.98C1092.48 114.367 1097.32 113.56 1102.89 113.56ZM1093.65 136C1088.08 136 1083.53 137.32 1080.01 139.96C1076.64 142.453 1074.22 146.34 1072.75 151.62C1071.28 156.9 1070.55 163.5 1070.55 171.42V174.94C1070.55 183.447 1071.21 190.633 1072.53 196.5C1074 202.367 1076.42 206.84 1079.79 209.92C1083.31 213 1088.08 214.54 1094.09 214.54C1099.08 214.54 1103.18 212.927 1106.41 209.7C1109.64 206.473 1112.06 201.927 1113.67 196.06C1115.28 190.047 1116.09 182.933 1116.09 174.72C1116.09 162.4 1114.18 152.867 1110.37 146.12C1106.7 139.373 1101.13 136 1093.65 136Z" fill="#124261"/>
<path d="M52.58 114.88L48.4952 111.997L48.4665 112.037L48.4386 112.078L52.58 114.88ZM44.88 132.92L49.7307 134.133H49.7307L44.88 132.92ZM46.64 187.26L41.9131 188.89L41.9175 188.903L41.922 188.915L46.64 187.26ZM60.06 206.62L57.0445 210.608L60.06 206.62ZM101.2 211.46L102.272 216.344L102.329 216.331L102.385 216.318L101.2 211.46ZM119.46 205.74H124.46V198.485L117.68 201.068L119.46 205.74ZM119.46 229.72L121.47 234.298L124.46 232.986V229.72H119.46ZM100.76 235.44L99.8656 230.521L99.8555 230.523L99.8455 230.524L100.76 235.44ZM41.36 227.3L38.5585 231.441L38.5795 231.456L38.6007 231.47L41.36 227.3ZM18.92 199.14L14.2738 200.987L14.2873 201.021L14.3013 201.055L18.92 199.14ZM16.28 123.9L21.0511 125.395H21.0511L16.28 123.9ZM29.92 98.38L26.0853 95.1714V95.1714L29.92 98.38ZM52.14 81.66L54.1918 86.2196H54.1918L52.14 81.66ZM104.94 78.58L103.727 83.4307L103.781 83.4443L103.836 83.4566L104.94 78.58ZM125.4 86.06L129.996 88.0296L131.781 83.8634L127.81 81.6789L125.4 86.06ZM115.5 109.16L113.315 113.658L118.031 115.948L120.096 111.13L115.5 109.16ZM99.44 102.56L97.6705 107.236L97.7456 107.265L97.8216 107.291L99.44 102.56ZM82.06 99.48V94.48C75.1609 94.48 68.7727 95.9653 63.0006 99.0211L65.34 103.44L67.6794 107.859C71.8807 105.635 76.6391 104.48 82.06 104.48V99.48ZM65.34 103.44L63.0006 99.0211C57.2638 102.058 52.4304 106.422 48.4952 111.997L52.58 114.88L56.6648 117.763C59.7696 113.365 63.4429 110.102 67.6794 107.859L65.34 103.44ZM52.58 114.88L48.4386 112.078C44.6783 117.637 41.9028 124.213 40.0293 131.707L44.88 132.92L49.7307 134.133C51.3772 127.547 53.7351 122.096 56.7214 117.682L52.58 114.88ZM44.88 132.92L40.0293 131.707C38.1518 139.217 37.24 147.555 37.24 156.68H42.24H47.24C47.24 148.206 48.0882 140.703 49.7307 134.133L44.88 132.92ZM42.24 156.68H37.24C37.24 168.948 38.7515 179.721 41.9131 188.89L46.64 187.26L51.3669 185.63C48.6618 177.785 47.24 168.172 47.24 156.68H42.24ZM46.64 187.26L41.922 188.915C45.1227 198.038 50.117 205.371 57.0445 210.608L60.06 206.62L63.0755 202.632C57.9763 198.776 54.0239 193.202 51.358 185.605L46.64 187.26ZM60.06 206.62L57.0445 210.608C64.0936 215.938 72.7689 218.44 82.72 218.44V213.44V208.44C74.4845 208.44 68.053 206.395 63.0755 202.632L60.06 206.62ZM82.72 213.44V218.44C89.3783 218.44 95.8981 217.743 102.272 216.344L101.2 211.46L100.128 206.576C94.4753 207.817 88.675 208.44 82.72 208.44V213.44ZM101.2 211.46L102.385 216.318C108.613 214.799 114.898 212.828 121.24 210.412L119.46 205.74L117.68 201.068C111.702 203.345 105.814 205.188 100.015 206.602L101.2 211.46ZM119.46 205.74H114.46V229.72H119.46H124.46V205.74H119.46ZM119.46 229.72L117.45 225.142C111.794 227.625 105.935 229.417 99.8656 230.521L100.76 235.44L101.654 240.359C108.492 239.116 115.1 237.095 121.47 234.298L119.46 229.72ZM100.76 235.44L99.8455 230.524C93.9008 231.63 87.1014 232.2 79.42 232.2V237.2V242.2C87.5786 242.2 95.0059 241.596 101.675 240.356L100.76 235.44ZM79.42 237.2V232.2C64.7215 232.2 53.0686 229.053 44.1193 223.13L41.36 227.3L38.6007 231.47C49.5981 238.747 63.3185 242.2 79.42 242.2V237.2ZM41.36 227.3L44.1615 223.159C35.065 217.005 28.1824 208.424 23.5387 197.225L18.92 199.14L14.3013 201.055C19.6309 213.909 27.7084 224.102 38.5585 231.441L41.36 227.3ZM18.92 199.14L23.5662 197.293C19.0091 185.831 16.66 172.256 16.66 156.46H11.66H6.66C6.66 173.224 9.15089 188.103 14.2738 200.987L18.92 199.14ZM11.66 156.46H16.66C16.66 145.011 18.1441 134.67 21.0511 125.395L16.28 123.9L11.5089 122.405C8.25594 132.783 6.66 144.149 6.66 156.46H11.66ZM16.28 123.9L21.0511 125.395C23.9541 116.134 28.203 108.224 33.7547 101.589L29.92 98.38L26.0853 95.1714C19.6103 102.91 14.7659 112.013 11.5089 122.405L16.28 123.9ZM29.92 98.38L33.7547 101.589C39.2687 94.9987 46.0593 89.8793 54.1918 86.2196L52.14 81.66L50.0882 77.1004C40.6207 81.3608 32.598 87.388 26.0853 95.1714L29.92 98.38ZM52.14 81.66L54.1918 86.2196C62.2461 82.5952 71.5747 80.72 82.28 80.72V75.72V70.72C70.3986 70.72 59.6339 72.8049 50.0882 77.1004L52.14 81.66ZM82.28 75.72V80.72C89.3309 80.72 96.4771 81.6182 103.727 83.4307L104.94 78.58L106.153 73.7293C98.1496 71.7285 90.1891 70.72 82.28 70.72V75.72ZM104.94 78.58L103.836 83.4566C111.237 85.1323 117.603 87.4779 122.99 90.4411L125.4 86.06L127.81 81.6789C121.464 78.1888 114.19 75.5477 106.044 73.7035L104.94 78.58ZM125.4 86.06L120.804 84.0904L110.904 107.19L115.5 109.16L120.096 111.13L129.996 88.0296L125.4 86.06ZM115.5 109.16L117.685 104.662C112.362 102.077 106.819 99.7999 101.058 97.8292L99.44 102.56L97.8216 107.291C103.208 109.133 108.372 111.256 113.315 113.658L115.5 109.16ZM99.44 102.56L101.209 97.8836C95.1832 95.6034 88.7869 94.48 82.06 94.48V99.48V104.48C87.6531 104.48 92.8434 105.41 97.6705 107.236L99.44 102.56ZM246.534 201.56L241.782 200.006L246.534 201.56ZM235.534 221.14L231.803 217.812L231.797 217.818L235.534 221.14ZM218.374 233.24L220.196 237.896L220.24 237.879L220.283 237.861L218.374 233.24ZM173.934 233.24L171.989 237.846L172.05 237.872L172.112 237.896L173.934 233.24ZM156.774 221.14L152.992 224.411L153.039 224.465L153.088 224.519L156.774 221.14ZM145.774 201.56L150.499 199.924L145.774 201.56ZM148.194 141.72L143.68 139.57L143.672 139.586L143.665 139.602L148.194 141.72ZM167.114 120.82L169.595 125.161L169.624 125.145L169.653 125.128L167.114 120.82ZM224.314 120.82L221.742 125.107L221.77 125.125L221.8 125.142L224.314 120.82ZM243.234 141.72L238.748 143.928L238.769 143.971L238.791 144.013L243.234 141.72ZM174.154 196.72L169.355 198.125L169.36 198.141L169.365 198.157L174.154 196.72ZM182.074 210.14L178.782 213.903L178.819 213.936L178.858 213.969L182.074 210.14ZM210.014 210.14L206.798 206.312L206.759 206.344L206.722 206.377L210.014 210.14ZM217.934 196.72L213.135 195.316L213.124 195.355L213.113 195.394L217.934 196.72ZM217.934 153.82L213.145 155.257L213.15 155.274L213.155 155.29L217.934 153.82ZM209.794 140.62L206.502 144.383L206.585 144.456L206.671 144.524L209.794 140.62ZM177.234 146.12L181.587 148.58L177.234 146.12ZM250.274 175.16H245.274C245.274 184.728 244.077 192.986 241.782 200.006L246.534 201.56L251.287 203.114C253.978 194.881 255.274 185.538 255.274 175.16H250.274ZM246.534 201.56L241.782 200.006C239.48 207.046 236.138 212.951 231.803 217.812L235.534 221.14L239.266 224.468C244.61 218.476 248.601 211.328 251.287 203.114L246.534 201.56ZM235.534 221.14L231.797 217.818C227.624 222.513 222.536 226.111 216.465 228.619L218.374 233.24L220.283 237.861C227.705 234.795 234.058 230.327 239.271 224.462L235.534 221.14ZM218.374 233.24L216.552 228.584C210.468 230.964 203.545 232.2 195.714 232.2V237.2V242.2C204.603 242.2 212.787 240.796 220.196 237.896L218.374 233.24ZM195.714 237.2V232.2C188.518 232.2 181.881 230.98 175.756 228.584L173.934 233.24L172.112 237.896C179.481 240.78 187.363 242.2 195.714 242.2V237.2ZM173.934 233.24L175.879 228.634C169.941 226.126 164.814 222.512 160.46 217.761L156.774 221.14L153.088 224.519C158.414 230.328 164.728 234.78 171.989 237.846L173.934 233.24ZM156.774 221.14L160.556 217.869C156.327 212.979 152.957 207.026 150.499 199.924L145.774 201.56L141.049 203.196C143.871 211.348 147.835 218.448 152.992 224.411L156.774 221.14ZM145.774 201.56L150.499 199.924C148.078 192.931 146.814 184.703 146.814 175.16H141.814H136.814C136.814 185.564 138.19 194.936 141.049 203.196L145.774 201.56ZM141.814 175.16H146.814C146.814 162.472 148.861 152.094 152.723 143.838L148.194 141.72L143.665 139.602C139.02 149.532 136.814 161.448 136.814 175.16H141.814ZM148.194 141.72L152.708 143.87C156.708 135.471 162.34 129.307 169.595 125.161L167.114 120.82L164.633 116.479C155.461 121.72 148.481 129.489 143.68 139.57L148.194 141.72ZM167.114 120.82L169.653 125.128C176.965 120.818 185.808 118.56 196.374 118.56V113.56V108.56C184.354 108.56 173.689 111.142 164.576 116.512L167.114 120.82ZM196.374 113.56V118.56C206.142 118.56 214.544 120.789 221.742 125.107L224.314 120.82L226.887 116.533C217.951 111.171 207.726 108.56 196.374 108.56V113.56ZM224.314 120.82L221.8 125.142C228.928 129.289 234.589 135.476 238.748 143.928L243.234 141.72L247.72 139.512C242.786 129.484 235.834 121.738 226.829 116.498L224.314 120.82ZM243.234 141.72L238.791 144.013C243.028 152.222 245.274 162.534 245.274 175.16H250.274H255.274C255.274 161.386 252.827 149.405 247.677 139.427L243.234 141.72ZM171.514 175.16H166.514C166.514 183.847 167.426 191.532 169.355 198.125L174.154 196.72L178.953 195.316C177.362 189.882 176.514 183.193 176.514 175.16H171.514ZM174.154 196.72L169.365 198.157C171.313 204.651 174.366 210.039 178.782 213.903L182.074 210.14L185.367 206.377C182.742 204.081 180.515 200.523 178.943 195.283L174.154 196.72ZM182.074 210.14L178.858 213.969C183.593 217.946 189.497 219.76 196.154 219.76V214.76V209.76C191.371 209.76 187.888 208.494 185.29 206.312L182.074 210.14ZM196.154 214.76V219.76C202.804 219.76 208.683 217.948 213.307 213.903L210.014 210.14L206.722 206.377C204.305 208.492 200.945 209.76 196.154 209.76V214.76ZM210.014 210.14L213.23 213.969C217.86 210.08 220.946 204.626 222.755 198.046L217.934 196.72L213.113 195.394C211.696 200.548 209.502 204.04 206.798 206.312L210.014 210.14ZM217.934 196.72L222.733 198.125C224.662 191.532 225.574 183.847 225.574 175.16H220.574H215.574C215.574 183.193 214.726 189.882 213.135 195.316L217.934 196.72ZM220.574 175.16H225.574C225.574 166.347 224.667 158.7 222.713 152.35L217.934 153.82L213.155 155.29C214.721 160.38 215.574 166.96 215.574 175.16H220.574ZM217.934 153.82L222.723 152.383C220.759 145.838 217.587 140.451 212.918 136.716L209.794 140.62L206.671 144.524C209.335 146.656 211.589 150.069 213.145 155.257L217.934 153.82ZM209.794 140.62L213.087 136.857C208.463 132.812 202.584 131 195.934 131V136V141C200.725 141 204.085 142.268 206.502 144.383L209.794 140.62ZM195.934 136V131C185.733 131 177.7 135.134 172.881 143.66L177.234 146.12L181.587 148.58C184.395 143.613 188.829 141 195.934 141V136ZM177.234 146.12L172.881 143.66C168.456 151.488 166.514 162.168 166.514 175.16H171.514H176.514C176.514 162.925 178.385 154.245 181.587 148.58L177.234 146.12ZM439.103 214.1L440.083 219.003L440.173 218.985L440.261 218.964L439.103 214.1ZM447.683 211.68H452.683V204.743L446.102 206.937L447.683 211.68ZM447.683 232.36L449.652 236.956L452.683 235.657V232.36H447.683ZM436.463 235.66L435.482 230.757L435.404 230.773L435.327 230.791L436.463 235.66ZM403.683 233.9L401.652 238.469L401.706 238.493L401.76 238.515L403.683 233.9ZM391.143 222.02L386.718 224.349L386.742 224.394L386.767 224.438L391.143 222.02ZM386.743 136.66H391.743V131.66H386.743V136.66ZM371.783 136.66H366.783V141.66H371.783V136.66ZM371.783 124.56L369.278 120.233L366.783 121.677V124.56H371.783ZM388.503 114.88L391.008 119.207L392.615 118.277L393.225 116.523L388.503 114.88ZM397.303 89.58V84.58H393.748L392.58 87.9374L397.303 89.58ZM415.783 89.58H420.783V84.58H415.783V89.58ZM415.783 115.76H410.783V120.76H415.783V115.76ZM446.583 115.76H451.583V110.76H446.583V115.76ZM446.583 136.66V141.66H451.583V136.66H446.583ZM415.783 136.66V131.66H410.783V136.66H415.783ZM419.523 211.02L415.797 214.354L415.889 214.457L415.987 214.556L419.523 211.02ZM429.863 214.98V219.98C433.393 219.98 436.803 219.659 440.083 219.003L439.103 214.1L438.122 209.197C435.536 209.714 432.786 209.98 429.863 209.98V214.98ZM439.103 214.1L440.261 218.964C443.465 218.201 446.467 217.356 449.264 216.423L447.683 211.68L446.102 206.937C443.618 207.764 440.901 208.532 437.945 209.236L439.103 214.1ZM447.683 211.68H442.683V232.36H447.683H452.683V211.68H447.683ZM447.683 232.36L445.713 227.764C443.038 228.911 439.649 229.924 435.482 230.757L436.463 235.66L437.443 240.563C442.076 239.636 446.168 238.449 449.652 236.956L447.683 232.36ZM436.463 235.66L435.327 230.791C431.365 231.715 426.841 232.2 421.723 232.2V237.2V242.2C427.458 242.2 432.761 241.658 437.599 240.529L436.463 235.66ZM421.723 237.2V232.2C415.52 232.2 410.177 231.189 405.606 229.285L403.683 233.9L401.76 238.515C407.748 241.011 414.433 242.2 421.723 242.2V237.2ZM403.683 233.9L405.714 229.331C401.531 227.472 398.129 224.324 395.519 219.602L391.143 222.02L386.767 224.438C390.317 230.862 395.275 235.635 401.652 238.469L403.683 233.9ZM391.143 222.02L395.567 219.691C393.17 215.136 391.743 208.288 391.743 198.7H386.743H381.743C381.743 209.059 383.249 217.757 386.718 224.349L391.143 222.02ZM386.743 198.7H391.743V136.66H386.743H381.743V198.7H386.743ZM386.743 136.66V131.66H371.783V136.66V141.66H386.743V136.66ZM371.783 136.66H376.783V124.56H371.783H366.783V136.66H371.783ZM371.783 124.56L374.288 128.887L391.008 119.207L388.503 114.88L385.998 110.553L369.278 120.233L371.783 124.56ZM388.503 114.88L393.225 116.523L402.025 91.2226L397.303 89.58L392.58 87.9374L383.78 113.237L388.503 114.88ZM397.303 89.58V94.58H415.783V89.58V84.58H397.303V89.58ZM415.783 89.58H410.783V115.76H415.783H420.783V89.58H415.783ZM415.783 115.76V120.76H446.583V115.76V110.76H415.783V115.76ZM446.583 115.76H441.583V136.66H446.583H451.583V115.76H446.583ZM446.583 136.66V131.66H415.783V136.66V141.66H446.583V136.66ZM415.783 136.66H410.783V198.48H415.783H420.783V136.66H415.783ZM415.783 198.48H410.783C410.783 204.695 412.161 210.291 415.797 214.354L419.523 211.02L423.249 207.686C421.898 206.176 420.783 203.411 420.783 198.48H415.783ZM419.523 211.02L415.987 214.556C419.698 218.266 424.484 219.98 429.863 219.98V214.98V209.98C426.735 209.98 424.628 209.054 423.058 207.484L419.523 211.02ZM535.815 235L531.023 236.425L532.086 240H535.815V235ZM497.535 106.3L502.328 104.875L501.264 101.3H497.535V106.3ZM496.655 106.3V101.3H491.399L491.661 106.55L496.655 106.3ZM497.315 118.84L492.322 119.11L492.323 119.117L497.315 118.84ZM497.975 136.22L492.977 136.336L492.978 136.397L492.981 136.458L497.975 136.22ZM498.415 235V240H503.415V235H498.415ZM472.015 235H467.015V240H472.015V235ZM472.015 77.92V72.92H467.015V77.92H472.015ZM512.495 77.92L517.28 76.47L516.205 72.92H512.495V77.92ZM549.895 201.34L545.11 202.79L546.186 206.34H549.895V201.34ZM550.555 201.34V206.34H554.246L555.333 202.813L550.555 201.34ZM588.615 77.92V72.92H584.925L583.837 76.4466L588.615 77.92ZM629.315 77.92H634.315V72.92H629.315V77.92ZM629.315 235V240H634.315V235H629.315ZM601.595 235H596.595V240H601.595V235ZM601.815 136L606.814 136.125L606.814 136.122L601.815 136ZM602.475 119.06L607.467 119.337L607.468 119.33L602.475 119.06ZM603.135 106.52L608.129 106.77L608.391 101.52H603.135V106.52ZM602.255 106.52V101.52H598.558L597.475 105.055L602.255 106.52ZM562.875 235V240H566.572L567.656 236.465L562.875 235ZM535.815 235L540.608 233.575L502.328 104.875L497.535 106.3L492.743 107.725L531.023 236.425L535.815 235ZM497.535 106.3V101.3H496.655V106.3V111.3H497.535V106.3ZM496.655 106.3L491.661 106.55C491.809 109.493 492.029 113.681 492.322 119.11L497.315 118.84L502.308 118.57C502.015 113.146 501.795 108.974 501.649 106.05L496.655 106.3ZM497.315 118.84L492.323 119.117C492.613 124.335 492.831 130.073 492.977 136.336L497.975 136.22L502.974 136.104C502.826 129.753 502.604 123.905 502.307 118.563L497.315 118.84ZM497.975 136.22L492.981 136.458C493.271 142.549 493.415 148.262 493.415 153.6H498.415H503.415C503.415 148.084 503.266 142.211 502.97 135.982L497.975 136.22ZM498.415 153.6H493.415V235H498.415H503.415V153.6H498.415ZM498.415 235V230H472.015V235V240H498.415V235ZM472.015 235H477.015V77.92H472.015H467.015V235H472.015ZM472.015 77.92V82.92H512.495V77.92V72.92H472.015V77.92ZM512.495 77.92L507.71 79.3701L545.11 202.79L549.895 201.34L554.68 199.89L517.28 76.47L512.495 77.92ZM549.895 201.34V206.34H550.555V201.34V196.34H549.895V201.34ZM550.555 201.34L555.333 202.813L593.393 79.3934L588.615 77.92L583.837 76.4466L545.777 199.867L550.555 201.34ZM588.615 77.92V82.92H629.315V77.92V72.92H588.615V77.92ZM629.315 77.92H624.315V235H629.315H634.315V77.92H629.315ZM629.315 235V230H601.595V235V240H629.315V235ZM601.595 235H606.595V152.28H601.595H596.595V235H601.595ZM601.595 152.28H606.595C606.595 147.342 606.668 141.957 606.814 136.125L601.815 136L596.817 135.875C596.669 141.776 596.595 147.245 596.595 152.28H601.595ZM601.815 136L606.814 136.122C606.959 130.154 607.177 124.559 607.467 119.337L602.475 119.06L597.483 118.783C597.186 124.121 596.964 129.82 596.817 135.878L601.815 136ZM602.475 119.06L607.468 119.33C607.761 113.901 607.982 109.713 608.129 106.77L603.135 106.52L598.141 106.27C597.995 109.194 597.776 113.366 597.482 118.79L602.475 119.06ZM603.135 106.52V101.52H602.255V106.52V111.52H603.135V106.52ZM602.255 106.52L597.475 105.055L558.095 233.535L562.875 235L567.656 236.465L607.036 107.985L602.255 106.52ZM562.875 235V230H535.815V235V240H562.875V235ZM647.754 115.76V110.76H640.52L643.077 117.527L647.754 115.76ZM678.994 115.76L683.76 114.249L682.654 110.76H678.994V115.76ZM700.334 183.08L695.568 184.591L695.602 184.701L695.642 184.809L700.334 183.08ZM702.754 191.44L697.861 192.47L697.887 192.592L697.919 192.712L702.754 191.44ZM704.514 199.8L699.575 200.58L699.595 200.706L699.621 200.83L704.514 199.8ZM705.834 208.16L700.861 208.683L701.333 213.16H705.834V208.16ZM706.494 208.16V213.16H710.758L711.431 208.95L706.494 208.16ZM708.694 196.06L703.825 194.924L703.807 195.001L703.791 195.079L708.694 196.06ZM712.214 183.08L707.439 181.598L707.439 181.598L712.214 183.08ZM733.114 115.76V110.76H729.431L728.339 114.278L733.114 115.76ZM763.914 115.76L768.632 117.415L770.966 110.76H763.914V115.76ZM716.614 250.62L721.331 252.28L721.332 252.275L716.614 250.62ZM706.054 270.86L702.079 267.827L702.054 267.86L702.029 267.894L706.054 270.86ZM690.874 283.4L688.772 278.863L688.704 278.895L688.638 278.928L690.874 283.4ZM660.734 287.14L661.556 282.208L661.437 282.188L661.318 282.174L660.734 287.14ZM654.134 286.04H649.134V290.018L653.01 290.912L654.134 286.04ZM654.134 264.04L655.115 259.137L649.134 257.941V264.04H654.134ZM659.634 264.92L658.973 269.876L659.634 264.92ZM677.234 262.5L674.753 258.159L674.629 258.23L674.509 258.308L677.234 262.5ZM684.934 255.02L680.774 252.247L680.744 252.291L680.716 252.336L684.934 255.02ZM689.554 244.24L684.789 242.724L684.741 242.874L684.703 243.027L689.554 244.24ZM692.634 234.56L697.399 236.076L697.926 234.419L697.311 232.793L692.634 234.56ZM647.754 115.76V120.76H678.994V115.76V110.76H647.754V115.76ZM678.994 115.76L674.228 117.271L695.568 184.591L700.334 183.08L705.1 181.569L683.76 114.249L678.994 115.76ZM700.334 183.08L695.642 184.809C696.589 187.377 697.327 189.931 697.861 192.47L702.754 191.44L707.647 190.41C707.008 187.376 706.133 184.356 705.026 181.352L700.334 183.08ZM702.754 191.44L697.919 192.712C698.61 195.34 699.162 197.963 699.575 200.58L704.514 199.8L709.453 199.02C708.986 196.064 708.364 193.113 707.589 190.168L702.754 191.44ZM704.514 199.8L699.621 200.83C700.173 203.452 700.586 206.07 700.861 208.683L705.834 208.16L710.806 207.637C710.495 204.677 710.028 201.721 709.407 198.77L704.514 199.8ZM705.834 208.16V213.16H706.494V208.16V203.16H705.834V208.16ZM706.494 208.16L711.431 208.95C712.006 205.359 712.727 201.39 713.597 197.041L708.694 196.06L703.791 195.079C702.901 199.53 702.155 203.628 701.557 207.37L706.494 208.16ZM708.694 196.06L713.563 197.196C714.563 192.911 715.705 188.7 716.989 184.562L712.214 183.08L707.439 181.598C706.083 185.967 704.878 190.409 703.825 194.924L708.694 196.06ZM712.214 183.08L716.989 184.563L737.889 117.243L733.114 115.76L728.339 114.278L707.439 181.598L712.214 183.08ZM733.114 115.76V120.76H763.914V115.76V110.76H733.114V115.76ZM763.914 115.76L759.196 114.105L711.896 248.965L716.614 250.62L721.332 252.275L768.632 117.415L763.914 115.76ZM716.614 250.62L711.897 248.96C709.251 256.481 705.959 262.742 702.079 267.827L706.054 270.86L710.029 273.893C714.655 267.831 718.403 260.599 721.33 252.28L716.614 250.62ZM706.054 270.86L702.029 267.894C698.398 272.822 693.988 276.446 688.772 278.863L690.874 283.4L692.976 287.937C699.787 284.78 705.497 280.045 710.079 273.826L706.054 270.86ZM690.874 283.4L688.638 278.928C683.618 281.438 677.382 282.8 669.754 282.8V287.8V292.8C678.552 292.8 686.396 291.229 693.11 287.872L690.874 283.4ZM669.754 287.8V282.8C666.589 282.8 663.865 282.593 661.556 282.208L660.734 287.14L659.912 292.072C662.883 292.567 666.173 292.8 669.754 292.8V287.8ZM660.734 287.14L661.318 282.174C658.958 281.897 656.945 281.557 655.258 281.168L654.134 286.04L653.01 290.912C655.136 291.403 657.523 291.797 660.15 292.106L660.734 287.14ZM654.134 286.04H659.134V264.04H654.134H649.134V286.04H654.134ZM654.134 264.04L653.153 268.943C654.763 269.265 656.712 269.575 658.973 269.876L659.634 264.92L660.295 259.964C658.156 259.679 656.438 259.402 655.115 259.137L654.134 264.04ZM659.634 264.92L658.973 269.876C661.404 270.2 663.899 270.36 666.454 270.36V265.36V260.36C664.316 260.36 662.264 260.226 660.295 259.964L659.634 264.92ZM666.454 265.36V270.36C671.464 270.36 676.054 269.23 679.959 266.692L677.234 262.5L674.509 258.308C672.547 259.583 669.95 260.36 666.454 260.36V265.36ZM677.234 262.5L679.715 266.841C683.554 264.647 686.698 261.561 689.152 257.704L684.934 255.02L680.716 252.336C679.063 254.932 677.074 256.833 674.753 258.159L677.234 262.5ZM684.934 255.02L689.094 257.794C691.507 254.174 693.259 250.037 694.405 245.453L689.554 244.24L684.703 243.027C683.796 246.657 682.467 249.706 680.774 252.247L684.934 255.02ZM689.554 244.24L694.319 245.756L697.399 236.076L692.634 234.56L687.869 233.044L684.789 242.724L689.554 244.24ZM692.634 234.56L697.311 232.793L652.431 113.993L647.754 115.76L643.077 117.527L687.957 236.327L692.634 234.56ZM838.344 235V240H843.344V235H838.344ZM808.644 235H803.644V240H808.644V235ZM808.644 101.68H813.644V96.68H808.644V101.68ZM767.724 101.68H762.724V106.68H767.724V101.68ZM767.724 77.92V72.92H762.724V77.92H767.724ZM879.044 77.92H884.044V72.92H879.044V77.92ZM879.044 101.68V106.68H884.044V101.68H879.044ZM838.344 101.68V96.68H833.344V101.68H838.344ZM838.344 235V230H808.644V235V240H838.344V235ZM808.644 235H813.644V101.68H808.644H803.644V235H808.644ZM808.644 101.68V96.68H767.724V101.68V106.68H808.644V101.68ZM767.724 101.68H772.724V77.92H767.724H762.724V101.68H767.724ZM767.724 77.92V82.92H879.044V77.92V72.92H767.724V77.92ZM879.044 77.92H874.044V101.68H879.044H884.044V77.92H879.044ZM879.044 101.68V96.68H838.344V101.68V106.68H879.044V101.68ZM838.344 101.68H833.344V235H838.344H843.344V101.68H838.344ZM955.641 113.78L955.308 118.769L955.641 113.78ZM961.141 114.66L966.114 115.17L966.536 111.059L962.577 109.871L961.141 114.66ZM958.5 140.4L957.52 145.303L962.913 146.382L963.474 140.91L958.5 140.4ZM953.22 139.74L952.46 144.682L952.661 144.713L952.864 144.727L953.22 139.74ZM936.28 141.5L938.036 146.182L938.12 146.15L938.204 146.115L936.28 141.5ZM926.82 147.66L930.259 151.29L930.308 151.243L930.356 151.196L926.82 147.66ZM920 158L915.38 156.088L915.352 156.157L915.326 156.227L920 158ZM917.58 235V240H922.58V235H917.58ZM888.32 235H883.32V240H888.32V235ZM888.32 115.76V110.76H883.32V115.76H888.32ZM910.76 115.76L915.671 114.82L914.894 110.76H910.76V115.76ZM914.72 136.44L909.81 137.38L910.587 141.44H914.72V136.44ZM916.26 136.44V141.44H919.304L920.702 138.737L916.26 136.44ZM924.4 125L920.791 121.541L920.787 121.544L924.4 125ZM935.62 116.64L933.447 112.137L933.415 112.152L933.384 112.168L935.62 116.64ZM949.26 113.56V118.56C951.195 118.56 953.211 118.629 955.308 118.769L955.641 113.78L955.973 108.791C953.67 108.638 951.433 108.56 949.26 108.56V113.56ZM955.641 113.78L955.308 118.769C957.282 118.901 958.715 119.153 959.704 119.449L961.141 114.66L962.577 109.871C960.632 109.287 958.399 108.953 955.973 108.791L955.641 113.78ZM961.141 114.66L956.167 114.15L953.527 139.89L958.5 140.4L963.474 140.91L966.114 115.17L961.141 114.66ZM958.5 140.4L959.481 135.497C957.748 135.151 955.768 134.909 953.577 134.753L953.22 139.74L952.864 144.727C954.78 144.864 956.32 145.063 957.52 145.303L958.5 140.4ZM953.22 139.74L953.981 134.798C951.79 134.461 949.48 134.3 947.06 134.3V139.3V144.3C949.041 144.3 950.837 144.432 952.46 144.682L953.22 139.74ZM947.06 139.3V134.3C942.707 134.3 938.462 135.174 934.357 136.885L936.28 141.5L938.204 146.115C941.139 144.892 944.08 144.3 947.06 144.3V139.3ZM936.28 141.5L934.525 136.818C930.304 138.401 926.551 140.858 923.285 144.124L926.82 147.66L930.356 151.196C932.663 148.889 935.217 147.239 938.036 146.182L936.28 141.5ZM926.82 147.66L923.382 144.03C919.994 147.24 917.357 151.313 915.38 156.088L920 158L924.621 159.912C926.164 156.181 928.074 153.36 930.259 151.29L926.82 147.66ZM920 158L915.326 156.227C913.445 161.184 912.58 166.875 912.58 173.18H917.58H922.58C922.58 167.752 923.329 163.323 924.675 159.773L920 158ZM917.58 173.18H912.58V235H917.58H922.58V173.18H917.58ZM917.58 235V230H888.32V235V240H917.58V235ZM888.32 235H893.32V115.76H888.32H883.32V235H888.32ZM888.32 115.76V120.76H910.76V115.76V110.76H888.32V115.76ZM910.76 115.76L905.85 116.7L909.81 137.38L914.72 136.44L919.631 135.5L915.671 114.82L910.76 115.76ZM914.72 136.44V141.44H916.26V136.44V131.44H914.72V136.44ZM916.26 136.44L920.702 138.737C922.688 134.897 925.125 131.476 928.014 128.456L924.4 125L920.787 121.544C917.222 125.271 914.233 129.477 911.819 134.143L916.26 136.44ZM924.4 125L928.01 128.46C931.012 125.328 934.293 122.894 937.857 121.112L935.62 116.64L933.384 112.168C928.734 114.493 924.536 117.632 920.791 121.541L924.4 125ZM935.62 116.64L937.794 121.143C941.353 119.425 945.154 118.56 949.26 118.56V113.56V108.56C943.687 108.56 938.395 109.748 933.447 112.137L935.62 116.64ZM1009.53 115.76H1014.53V110.76H1009.53V115.76ZM1009.53 235V240H1014.53V235H1009.53ZM980.494 235H975.494V240H980.494V235ZM980.494 115.76V110.76H975.494V115.76H980.494ZM1006.23 73.08L1003.33 77.1487L1003.39 77.1955L1003.46 77.2403L1006.23 73.08ZM1006.23 95.74L1009.14 99.8087L1009.2 99.7639L1009.26 99.7172L1006.23 95.74ZM983.794 95.74L980.763 99.7172L980.825 99.7639L980.887 99.8087L983.794 95.74ZM983.794 73.08L986.567 77.2403L986.634 77.1955L986.7 77.1487L983.794 73.08ZM1009.53 115.76H1004.53V235H1009.53H1014.53V115.76H1009.53ZM1009.53 235V230H980.494V235V240H1009.53V235ZM980.494 235H985.494V115.76H980.494H975.494V235H980.494ZM980.494 115.76V120.76H1009.53V115.76V110.76H980.494V115.76ZM995.234 69.78V74.78C998.579 74.78 1001.2 75.6282 1003.33 77.1487L1006.23 73.08L1009.14 69.0113C1005.11 66.1319 1000.39 64.78 995.234 64.78V69.78ZM1006.23 73.08L1003.46 77.2403C1004.58 77.984 1005.85 79.7126 1005.85 84.3H1010.85H1015.85C1015.85 78.0341 1014.05 72.2827 1009.01 68.9198L1006.23 73.08ZM1010.85 84.3H1005.85C1005.85 88.6281 1004.63 90.6781 1003.2 91.7629L1006.23 95.74L1009.26 99.7172C1014 96.1086 1015.85 90.5319 1015.85 84.3H1010.85ZM1006.23 95.74L1003.33 91.6714C1001.2 93.1919 998.579 94.04 995.234 94.04V99.04V104.04C1000.39 104.04 1005.11 102.688 1009.14 99.8087L1006.23 95.74ZM995.234 99.04V94.04C991.515 94.04 988.773 93.1519 986.7 91.6714L983.794 95.74L980.887 99.8087C984.975 102.728 989.859 104.04 995.234 104.04V99.04ZM983.794 95.74L986.824 91.7629C985.4 90.6781 984.174 88.6281 984.174 84.3H979.174H974.174C974.174 90.5319 976.027 96.1086 980.763 99.7172L983.794 95.74ZM979.174 84.3H984.174C984.174 79.7126 985.451 77.984 986.567 77.2403L983.794 73.08L981.02 68.9198C975.976 72.2827 974.174 78.0341 974.174 84.3H979.174ZM983.794 73.08L986.7 77.1487C988.773 75.6681 991.515 74.78 995.234 74.78V69.78V64.78C989.859 64.78 984.975 66.0919 980.887 69.0113L983.794 73.08ZM1133.91 129.18L1129.9 132.171L1129.93 132.203L1129.95 132.234L1133.91 129.18ZM1140.29 209.26L1135.64 207.416L1140.29 209.26ZM1124.89 230.16L1127.79 234.235L1124.89 230.16ZM1087.71 235L1085.82 239.63L1085.92 239.672L1086.03 239.709L1087.71 235ZM1077.59 229.06L1074.26 232.786L1074.31 232.836L1074.37 232.885L1077.59 229.06ZM1070.55 221.14L1074.68 218.317L1073.19 216.14H1070.55V221.14ZM1069.01 221.14V216.14H1063.11L1064.08 221.962L1069.01 221.14ZM1070.11 230.16L1065.13 230.593L1065.13 230.603L1065.13 230.613L1070.11 230.16ZM1070.55 287.8V292.8H1075.55V287.8H1070.55ZM1041.29 287.8H1036.29V292.8H1041.29V287.8ZM1041.29 115.76V110.76H1036.29V115.76H1041.29ZM1065.05 115.76L1069.9 114.547L1068.95 110.76H1065.05V115.76ZM1069.01 131.6L1064.16 132.813L1065.11 136.6H1069.01V131.6ZM1070.55 131.6V136.6H1073.36L1074.82 134.2L1070.55 131.6ZM1077.81 122.58L1081.25 126.21L1081.25 126.205L1077.81 122.58ZM1088.37 115.98L1090.2 120.634V120.634L1088.37 115.98ZM1080.01 139.96L1082.98 143.981L1083 143.971L1083.01 143.96L1080.01 139.96ZM1072.75 151.62L1067.93 150.282L1072.75 151.62ZM1072.53 196.5L1067.65 197.598L1067.66 197.655L1067.68 197.713L1072.53 196.5ZM1079.79 209.92L1076.42 213.612L1076.46 213.648L1076.5 213.683L1079.79 209.92ZM1106.41 209.7L1109.94 213.236L1106.41 209.7ZM1113.67 196.06L1118.49 197.386L1118.49 197.371L1118.5 197.356L1113.67 196.06ZM1110.37 146.12L1105.98 148.508L1106 148.544L1106.02 148.58L1110.37 146.12ZM1102.89 113.56V118.56C1114.21 118.56 1123.07 123.012 1129.9 132.171L1133.91 129.18L1137.92 126.189C1129.21 114.522 1117.39 108.56 1102.89 108.56V113.56ZM1133.91 129.18L1129.95 132.234C1136.91 141.251 1140.79 155.287 1140.79 175.16H1145.79H1150.79C1150.79 154.26 1146.75 137.643 1137.87 126.126L1133.91 129.18ZM1145.79 175.16H1140.79C1140.79 188.233 1139.01 198.932 1135.64 207.416L1140.29 209.26L1144.94 211.104C1148.9 201.108 1150.79 189.073 1150.79 175.16H1145.79ZM1140.29 209.26L1135.64 207.416C1132.25 215.964 1127.64 222.066 1121.99 226.085L1124.89 230.16L1127.79 234.235C1135.34 228.867 1141 221.036 1144.94 211.104L1140.29 209.26ZM1124.89 230.16L1121.99 226.085C1116.3 230.135 1109.7 232.2 1102.01 232.2V237.2V242.2C1111.63 242.2 1120.28 239.572 1127.79 234.235L1124.89 230.16ZM1102.01 237.2V232.2C1097.02 232.2 1092.84 231.525 1089.39 230.291L1087.71 235L1086.03 239.709C1090.79 241.409 1096.14 242.2 1102.01 242.2V237.2ZM1087.71 235L1089.6 230.37C1086.04 228.92 1083.13 227.193 1080.81 225.235L1077.59 229.06L1074.37 232.885C1077.62 235.621 1081.46 237.853 1085.82 239.63L1087.71 235ZM1077.59 229.06L1080.92 225.334C1078.4 223.08 1076.33 220.738 1074.68 218.317L1070.55 221.14L1066.42 223.963C1068.58 227.115 1071.2 230.053 1074.26 232.786L1077.59 229.06ZM1070.55 221.14V216.14H1069.01V221.14V226.14H1070.55V221.14ZM1069.01 221.14L1064.08 221.962C1064.49 224.445 1064.84 227.318 1065.13 230.593L1070.11 230.16L1075.09 229.727C1074.79 226.256 1074.41 223.115 1073.94 220.318L1069.01 221.14ZM1070.11 230.16L1065.13 230.613C1065.41 233.704 1065.55 236.632 1065.55 239.4H1070.55H1075.55C1075.55 236.301 1075.39 233.069 1075.09 229.707L1070.11 230.16ZM1070.55 239.4H1065.55V287.8H1070.55H1075.55V239.4H1070.55ZM1070.55 287.8V282.8H1041.29V287.8V292.8H1070.55V287.8ZM1041.29 287.8H1046.29V115.76H1041.29H1036.29V287.8H1041.29ZM1041.29 115.76V120.76H1065.05V115.76V110.76H1041.29V115.76ZM1065.05 115.76L1060.2 116.973L1064.16 132.813L1069.01 131.6L1073.86 130.387L1069.9 114.547L1065.05 115.76ZM1069.01 131.6V136.6H1070.55V131.6V126.6H1069.01V131.6ZM1070.55 131.6L1074.82 134.2C1076.65 131.194 1078.79 128.536 1081.25 126.21L1077.81 122.58L1074.37 118.95C1071.25 121.904 1068.56 125.259 1066.28 129L1070.55 131.6ZM1077.81 122.58L1081.25 126.205C1083.68 123.901 1086.64 122.033 1090.2 120.634L1088.37 115.98L1086.54 111.326C1081.89 113.154 1077.81 115.686 1074.37 118.955L1077.81 122.58ZM1088.37 115.98L1090.2 120.634C1093.59 119.301 1097.78 118.56 1102.89 118.56V113.56V108.56C1096.85 108.56 1091.36 109.433 1086.54 111.326L1088.37 115.98ZM1093.65 136V131C1087.29 131 1081.6 132.515 1077.01 135.96L1080.01 139.96L1083.01 143.96C1085.46 142.125 1088.87 141 1093.65 141V136ZM1080.01 139.96L1077.04 135.939C1072.52 139.275 1069.6 144.258 1067.93 150.282L1072.75 151.62L1077.57 152.958C1078.83 148.422 1080.75 145.632 1082.98 143.981L1080.01 139.96ZM1072.75 151.62L1067.93 150.282C1066.3 156.144 1065.55 163.23 1065.55 171.42H1070.55H1075.55C1075.55 163.77 1076.26 157.656 1077.57 152.958L1072.75 151.62ZM1070.55 171.42H1065.55V174.94H1070.55H1075.55V171.42H1070.55ZM1070.55 174.94H1065.55C1065.55 183.677 1066.22 191.257 1067.65 197.598L1072.53 196.5L1077.41 195.402C1076.19 190.01 1075.55 183.216 1075.55 174.94H1070.55ZM1072.53 196.5L1067.68 197.713C1069.31 204.23 1072.12 209.686 1076.42 213.612L1079.79 209.92L1083.16 206.228C1080.71 203.994 1078.68 200.503 1077.38 195.287L1072.53 196.5ZM1079.79 209.92L1076.5 213.683C1081.16 217.767 1087.22 219.54 1094.09 219.54V214.54V209.54C1088.93 209.54 1085.45 208.233 1083.08 206.157L1079.79 209.92ZM1094.09 214.54V219.54C1100.27 219.54 1105.69 217.492 1109.94 213.236L1106.41 209.7L1102.87 206.164C1100.68 208.362 1097.89 209.54 1094.09 209.54V214.54ZM1106.41 209.7L1109.94 213.236C1113.96 209.225 1116.72 203.819 1118.49 197.386L1113.67 196.06L1108.85 194.734C1107.39 200.034 1105.32 203.722 1102.87 206.165L1106.41 209.7ZM1113.67 196.06L1118.5 197.356C1120.25 190.81 1121.09 183.24 1121.09 174.72H1116.09H1111.09C1111.09 182.626 1110.31 189.283 1108.84 194.764L1113.67 196.06ZM1116.09 174.72H1121.09C1121.09 161.997 1119.14 151.475 1114.72 143.66L1110.37 146.12L1106.02 148.58C1109.23 154.258 1111.09 162.803 1111.09 174.72H1116.09ZM1110.37 146.12L1114.76 143.732C1112.58 139.721 1109.7 136.474 1106.03 134.253C1102.35 132.027 1098.16 131 1093.65 131V136V141C1096.61 141 1098.95 141.66 1100.85 142.808C1102.75 143.959 1104.49 145.773 1105.98 148.508L1110.37 146.12Z" fill="#124261" mask="url(#path-1-outside-1_144_17)"/>
<mask id="path-3-outside-2_144_17" maskUnits="userSpaceOnUse" x="224.876" y="49.4248" width="168.315" height="218.774" fill="black">
<rect fill="white" x="224.876" y="49.4248" width="168.315" height="218.774"/>
<path d="M328.309 223.503C323.375 225.012 317.731 226.047 311.378 226.609C305.139 227.136 298.822 226.997 292.427 226.191C286.112 225.236 280.35 223.421 275.141 220.748L281.291 200.233C288.123 203.289 295.046 205 302.059 205.365C309.073 205.731 315.735 204.949 322.047 203.019C330.768 200.352 336.734 197.086 339.943 193.218C343.268 189.316 344.158 184.84 342.614 179.791C341.632 176.577 339.602 174.249 336.526 172.805C333.449 171.362 329.6 170.468 324.977 170.125C320.435 169.631 315.525 169.375 310.25 169.357C304.939 169.224 299.575 168.919 294.159 168.442C288.707 167.85 283.495 166.808 278.522 165.317C273.628 163.676 269.363 161.216 265.725 157.936C262.087 154.656 259.373 150.09 257.584 144.237C255.268 136.664 255.105 129.561 257.093 122.93C259.081 116.299 263.004 110.457 268.863 105.403C274.836 100.314 282.298 96.4016 291.249 93.665C298.134 91.5599 304.519 90.4862 310.404 90.4438C316.254 90.2866 321.837 90.901 327.155 92.2869C332.587 93.6376 337.798 95.4953 342.787 97.8599L334.681 116.902C330.511 115.165 326.366 113.923 322.248 113.174C318.208 112.276 314.195 111.872 310.207 111.962C306.334 112.017 302.389 112.658 298.372 113.886C292.061 115.816 287.265 118.599 283.985 122.237C280.706 125.875 279.82 130.161 281.329 135.096C282.276 138.194 284.27 140.408 287.312 141.737C290.318 142.951 294.075 143.747 298.583 144.126C303.205 144.469 308.172 144.708 313.483 144.841C318.759 144.859 324.105 145.107 329.521 145.584C334.937 146.061 340.092 147.12 344.986 148.761C349.959 150.252 354.282 152.695 357.955 156.09C361.628 159.484 364.377 164.165 366.201 170.132C368.517 177.706 368.601 184.959 366.453 191.889C364.42 198.785 360.223 204.962 353.861 210.421C347.499 215.879 338.982 220.24 328.309 223.503ZM285.857 104.348L276.752 74.569L293.622 69.4115L302.726 99.1909L285.857 104.348ZM329.379 246.704L319.696 215.031L336.565 209.874L346.249 241.546L329.379 246.704Z"/>
</mask>
<path d="M328.309 223.503C323.375 225.012 317.731 226.047 311.378 226.609C305.139 227.136 298.822 226.997 292.427 226.191C286.112 225.236 280.35 223.421 275.141 220.748L281.291 200.233C288.123 203.289 295.046 205 302.059 205.365C309.073 205.731 315.735 204.949 322.047 203.019C330.768 200.352 336.734 197.086 339.943 193.218C343.268 189.316 344.158 184.84 342.614 179.791C341.632 176.577 339.602 174.249 336.526 172.805C333.449 171.362 329.6 170.468 324.977 170.125C320.435 169.631 315.525 169.375 310.25 169.357C304.939 169.224 299.575 168.919 294.159 168.442C288.707 167.85 283.495 166.808 278.522 165.317C273.628 163.676 269.363 161.216 265.725 157.936C262.087 154.656 259.373 150.09 257.584 144.237C255.268 136.664 255.105 129.561 257.093 122.93C259.081 116.299 263.004 110.457 268.863 105.403C274.836 100.314 282.298 96.4016 291.249 93.665C298.134 91.5599 304.519 90.4862 310.404 90.4438C316.254 90.2866 321.837 90.901 327.155 92.2869C332.587 93.6376 337.798 95.4953 342.787 97.8599L334.681 116.902C330.511 115.165 326.366 113.923 322.248 113.174C318.208 112.276 314.195 111.872 310.207 111.962C306.334 112.017 302.389 112.658 298.372 113.886C292.061 115.816 287.265 118.599 283.985 122.237C280.706 125.875 279.82 130.161 281.329 135.096C282.276 138.194 284.27 140.408 287.312 141.737C290.318 142.951 294.075 143.747 298.583 144.126C303.205 144.469 308.172 144.708 313.483 144.841C318.759 144.859 324.105 145.107 329.521 145.584C334.937 146.061 340.092 147.12 344.986 148.761C349.959 150.252 354.282 152.695 357.955 156.09C361.628 159.484 364.377 164.165 366.201 170.132C368.517 177.706 368.601 184.959 366.453 191.889C364.42 198.785 360.223 204.962 353.861 210.421C347.499 215.879 338.982 220.24 328.309 223.503ZM285.857 104.348L276.752 74.569L293.622 69.4115L302.726 99.1909L285.857 104.348ZM329.379 246.704L319.696 215.031L336.565 209.874L346.249 241.546L329.379 246.704Z" fill="#E48928"/>
<path d="M311.378 226.609L311.883 232.588L311.895 232.587L311.906 232.586L311.378 226.609ZM292.427 226.191L291.53 232.124L291.604 232.135L291.678 232.144L292.427 226.191ZM275.141 220.748L269.393 219.024L267.96 223.806L272.401 226.086L275.141 220.748ZM281.291 200.233L283.741 194.756L277.506 191.967L275.544 198.51L281.291 200.233ZM302.059 205.365L302.372 199.373L302.059 205.365ZM339.943 193.218L335.376 189.327L335.351 189.357L335.326 189.386L339.943 193.218ZM336.526 172.805L333.977 178.237L336.526 172.805ZM324.977 170.125L324.33 176.09L324.431 176.101L324.533 176.108L324.977 170.125ZM310.25 169.357L310.099 175.355L310.164 175.357L310.229 175.357L310.25 169.357ZM294.159 168.442L293.511 174.407L293.571 174.413L293.632 174.418L294.159 168.442ZM278.522 165.317L276.614 171.006L276.706 171.036L276.799 171.064L278.522 165.317ZM268.863 105.403L264.972 100.836L264.958 100.848L264.944 100.86L268.863 105.403ZM310.404 90.4438L310.447 96.4436L310.506 96.4432L310.565 96.4416L310.404 90.4438ZM327.155 92.2869L325.642 98.0929L325.674 98.1014L325.707 98.1096L327.155 92.2869ZM342.787 97.8599L348.308 100.21L350.566 94.9066L345.357 92.438L342.787 97.8599ZM334.681 116.902L332.374 122.441L337.869 124.73L340.201 119.252L334.681 116.902ZM322.248 113.174L320.945 119.031L321.059 119.057L321.175 119.078L322.248 113.174ZM310.207 111.962L310.292 117.961L310.317 117.961L310.342 117.96L310.207 111.962ZM283.985 122.237L288.442 126.255L288.442 126.255L283.985 122.237ZM287.312 141.737L284.91 147.235L284.987 147.269L285.065 147.3L287.312 141.737ZM298.583 144.126L298.081 150.105L298.109 150.107L298.138 150.109L298.583 144.126ZM313.483 144.841L313.333 150.839L313.397 150.84L313.462 150.841L313.483 144.841ZM329.521 145.584L330.048 139.607L330.048 139.607L329.521 145.584ZM344.986 148.761L343.078 154.45L343.17 154.481L343.263 154.509L344.986 148.761ZM357.955 156.09L362.027 151.683L357.955 156.09ZM366.453 191.889L360.722 190.114L360.71 190.153L360.698 190.193L366.453 191.889ZM285.857 104.348L280.119 106.103L281.873 111.84L287.611 110.086L285.857 104.348ZM276.752 74.569L274.998 68.8311L269.26 70.5854L271.015 76.3232L276.752 74.569ZM293.622 69.4115L299.359 67.6573L297.605 61.9195L291.867 63.6737L293.622 69.4115ZM302.726 99.1909L304.48 104.929L310.218 103.174L308.464 97.4366L302.726 99.1909ZM329.379 246.704L323.642 248.458L325.396 254.196L331.134 252.442L329.379 246.704ZM319.696 215.031L317.942 209.293L312.204 211.047L313.958 216.785L319.696 215.031ZM336.565 209.874L342.303 208.119L340.549 202.382L334.811 204.136L336.565 209.874ZM346.249 241.546L348.003 247.284L353.741 245.53L351.986 239.792L346.249 241.546ZM328.309 223.503L326.555 217.765C322.1 219.127 316.88 220.099 310.849 220.632L311.378 226.609L311.906 232.586C318.582 231.995 324.649 230.896 330.064 229.241L328.309 223.503ZM311.378 226.609L310.873 220.63C305.064 221.121 299.168 220.993 293.177 220.238L292.427 226.191L291.678 232.144C298.476 233.001 305.214 233.151 311.883 232.588L311.378 226.609ZM292.427 226.191L293.325 220.259C287.594 219.392 282.462 217.761 277.88 215.41L275.141 220.748L272.401 226.086C278.238 229.082 284.631 231.08 291.53 232.124L292.427 226.191ZM275.141 220.748L280.888 222.471L287.039 201.956L281.291 200.233L275.544 198.51L269.393 219.024L275.141 220.748ZM281.291 200.233L278.841 205.71C286.303 209.048 293.948 210.951 301.747 211.357L302.059 205.365L302.372 199.373C296.144 199.049 289.943 197.53 283.741 194.756L281.291 200.233ZM302.059 205.365L301.747 211.357C309.414 211.757 316.779 210.904 323.801 208.757L322.047 203.019L320.292 197.281C314.691 198.993 308.732 199.705 302.372 199.373L302.059 205.365ZM322.047 203.019L323.801 208.757C332.854 205.989 340.209 202.293 344.56 197.05L339.943 193.218L335.326 189.386C333.258 191.878 328.683 194.716 320.292 197.281L322.047 203.019ZM339.943 193.218L344.511 197.109C349.21 191.592 350.473 184.973 348.352 178.036L342.614 179.791L336.876 181.545C337.843 184.707 337.325 187.039 335.376 189.327L339.943 193.218ZM342.614 179.791L348.352 178.036C346.867 173.181 343.666 169.528 339.075 167.374L336.526 172.805L333.977 178.237C335.539 178.97 336.396 179.974 336.876 181.545L342.614 179.791ZM336.526 172.805L339.075 167.374C335.143 165.529 330.526 164.52 325.422 164.141L324.977 170.125L324.533 176.108C328.674 176.416 331.755 177.195 333.977 178.237L336.526 172.805ZM324.977 170.125L325.625 164.16C320.845 163.641 315.724 163.376 310.27 163.357L310.25 169.357L310.229 175.357C315.326 175.375 320.024 175.622 324.33 176.09L324.977 170.125ZM310.25 169.357L310.4 163.359C305.217 163.229 299.979 162.931 294.685 162.465L294.159 168.442L293.632 174.418C299.171 174.907 304.66 175.219 310.099 175.355L310.25 169.357ZM294.159 168.442L294.807 162.477C289.699 161.922 284.848 160.95 280.245 159.57L278.522 165.317L276.799 171.064C282.142 172.666 287.716 173.777 293.511 174.407L294.159 168.442ZM278.522 165.317L280.429 159.628C276.274 158.235 272.736 156.179 269.742 153.48L265.725 157.936L261.707 162.392C265.989 166.253 270.983 169.117 276.614 171.006L278.522 165.317ZM265.725 157.936L269.742 153.48C267.091 151.089 264.872 147.553 263.322 142.483L257.584 144.237L251.846 145.992C253.875 152.627 257.083 158.223 261.707 162.392L265.725 157.936ZM257.584 144.237L263.322 142.483C261.301 135.874 261.239 129.992 262.84 124.653L257.093 122.93L251.346 121.207C248.97 129.13 249.236 137.453 251.846 145.992L257.584 144.237ZM257.093 122.93L262.84 124.653C264.462 119.243 267.684 114.344 272.782 109.946L268.863 105.403L264.944 100.86C258.325 106.569 253.7 113.355 251.346 121.207L257.093 122.93ZM268.863 105.403L272.754 109.97C277.994 105.506 284.688 101.945 293.003 99.4028L291.249 93.665L289.495 87.9272C279.908 90.8582 271.678 95.1224 264.972 100.836L268.863 105.403ZM291.249 93.665L293.003 99.4028C299.453 97.4309 305.255 96.481 310.447 96.4436L310.404 90.4438L310.361 84.4439C303.784 84.4913 296.816 85.6889 289.495 87.9272L291.249 93.665ZM310.404 90.4438L310.565 96.4416C315.887 96.2987 320.905 96.8584 325.642 98.0929L327.155 92.2869L328.668 86.4808C322.77 84.9436 316.621 84.2746 310.243 84.446L310.404 90.4438ZM327.155 92.2869L325.707 98.1096C330.759 99.3656 335.593 101.09 340.218 103.282L342.787 97.8599L345.357 92.438C340.003 89.9006 334.416 87.9097 328.603 86.4642L327.155 92.2869ZM342.787 97.8599L337.267 95.5096L329.16 114.552L334.681 116.902L340.201 119.252L348.308 100.21L342.787 97.8599ZM334.681 116.902L336.987 111.363C332.451 109.474 327.894 108.102 323.32 107.271L322.248 113.174L321.175 119.078C324.838 119.743 328.57 120.857 332.374 122.441L334.681 116.902ZM322.248 113.174L323.55 107.317C319.057 106.318 314.561 105.862 310.072 105.963L310.207 111.962L310.342 117.96C313.829 117.882 317.36 118.234 320.945 119.031L322.248 113.174ZM310.207 111.962L310.122 105.962C305.637 106.026 301.131 106.768 296.618 108.148L298.372 113.886L300.127 119.624C303.647 118.547 307.03 118.007 310.292 117.961L310.207 111.962ZM298.372 113.886L296.618 108.148C289.616 110.289 283.748 113.54 279.529 118.22L283.985 122.237L288.442 126.255C290.782 123.658 294.506 121.342 300.127 119.624L298.372 113.886ZM283.985 122.237L279.529 118.22C274.748 123.522 273.506 130.031 275.591 136.85L281.329 135.096L287.067 133.342C286.134 130.291 286.663 128.228 288.442 126.255L283.985 122.237ZM281.329 135.096L275.591 136.85C277.064 141.67 280.308 145.224 284.91 147.235L287.312 141.737L289.714 136.239C288.233 135.591 287.488 134.719 287.067 133.342L281.329 135.096ZM287.312 141.737L285.065 147.3C288.8 148.809 293.191 149.694 298.081 150.105L298.583 144.126L299.085 138.147C294.959 137.8 291.836 137.093 289.559 136.173L287.312 141.737ZM298.583 144.126L298.138 150.109C302.871 150.461 307.937 150.704 313.333 150.839L313.483 144.841L313.633 138.842C308.407 138.712 303.539 138.478 299.027 138.142L298.583 144.126ZM313.483 144.841L313.462 150.841C318.564 150.858 323.741 151.098 328.994 151.561L329.521 145.584L330.048 139.607C324.468 139.115 318.953 138.86 313.504 138.841L313.483 144.841ZM329.521 145.584L328.994 151.561C333.966 151.999 338.655 152.967 343.078 154.45L344.986 148.761L346.893 143.073C341.529 141.274 335.909 140.124 330.048 139.607L329.521 145.584ZM344.986 148.761L343.263 154.509C347.395 155.748 350.906 157.745 353.883 160.496L357.955 156.09L362.027 151.683C357.658 147.645 352.523 144.757 346.709 143.014L344.986 148.761ZM357.955 156.09L353.883 160.496C356.604 163.011 358.873 166.686 360.463 171.887L366.201 170.132L371.939 168.378C369.88 161.644 366.652 155.957 362.027 151.683L357.955 156.09ZM366.201 170.132L360.463 171.887C362.461 178.42 362.481 184.438 360.722 190.114L366.453 191.889L372.184 193.665C374.721 185.48 374.573 176.993 371.939 168.378L366.201 170.132ZM366.453 191.889L360.698 190.193C359.044 195.803 355.586 201.035 349.954 205.867L353.861 210.421L357.768 214.974C364.86 208.89 369.797 201.767 372.208 193.586L366.453 191.889ZM353.861 210.421L349.954 205.867C344.391 210.64 336.685 214.668 326.555 217.765L328.309 223.503L330.064 229.241C341.279 225.812 350.606 221.119 357.768 214.974L353.861 210.421ZM285.857 104.348L291.595 102.594L282.49 72.8147L276.752 74.569L271.015 76.3232L280.119 106.103L285.857 104.348ZM276.752 74.569L278.507 80.3068L295.376 75.1494L293.622 69.4115L291.867 63.6737L274.998 68.8311L276.752 74.569ZM293.622 69.4115L287.884 71.1658L296.988 100.945L302.726 99.1909L308.464 97.4366L299.359 67.6573L293.622 69.4115ZM302.726 99.1909L300.972 93.453L284.103 98.6105L285.857 104.348L287.611 110.086L304.48 104.929L302.726 99.1909ZM329.379 246.704L335.117 244.95L325.434 213.277L319.696 215.031L313.958 216.785L323.642 248.458L329.379 246.704ZM319.696 215.031L321.45 220.769L338.319 215.611L336.565 209.874L334.811 204.136L317.942 209.293L319.696 215.031ZM336.565 209.874L330.827 211.628L340.511 243.301L346.249 241.546L351.986 239.792L342.303 208.119L336.565 209.874ZM346.249 241.546L344.494 235.809L327.625 240.966L329.379 246.704L331.134 252.442L348.003 247.284L346.249 241.546Z" fill="#E48928" mask="url(#path-3-outside-2_144_17)"/>
</svg>
