<svg width="1156" height="321" viewBox="0 0 1156 321" fill="none" xmlns="http://www.w3.org/2000/svg">
<mask id="path-1-outside-1_28_52" maskUnits="userSpaceOnUse" x="6" y="64" width="1145" height="229" fill="black">
<rect fill="white" x="6" y="64" width="1145" height="229"/>
<path d="M82.06 99.48C75.9 99.48 70.3267 100.8 65.34 103.44C60.3533 106.08 56.1 109.893 52.58 114.88C49.2067 119.867 46.64 125.88 44.88 132.92C43.12 139.96 42.24 147.88 42.24 156.68C42.24 168.56 43.7067 178.753 46.64 187.26C49.5733 195.62 54.0467 202.073 60.06 206.62C66.0733 211.167 73.6267 213.44 82.72 213.44C89.0267 213.44 95.1867 212.78 101.2 211.46C107.213 209.993 113.3 208.087 119.46 205.74V229.72C113.447 232.36 107.213 234.267 100.76 235.44C94.4533 236.613 87.34 237.2 79.42 237.2C64.02 237.2 51.3333 233.9 41.36 227.3C31.3867 220.553 23.9067 211.167 18.92 199.14C14.08 186.967 11.66 172.74 11.66 156.46C11.66 144.58 13.2 133.727 16.28 123.9C19.36 114.073 23.9067 105.567 29.92 98.38C35.9333 91.1933 43.34 85.62 52.14 81.66C60.94 77.7 70.9867 75.72 82.28 75.72C89.76 75.72 97.3133 76.6733 104.94 78.58C112.713 80.34 119.533 82.8333 125.4 86.06L115.5 109.16C110.367 106.667 105.013 104.467 99.44 102.56C94.0133 100.507 88.22 99.48 82.06 99.48ZM250.274 175.16C250.274 185.133 249.027 193.933 246.534 201.56C244.041 209.187 240.374 215.713 235.534 221.14C230.841 226.42 225.121 230.453 218.374 233.24C211.627 235.88 204.074 237.2 195.714 237.2C187.941 237.2 180.681 235.88 173.934 233.24C167.334 230.453 161.614 226.42 156.774 221.14C152.081 215.713 148.414 209.187 145.774 201.56C143.134 193.933 141.814 185.133 141.814 175.16C141.814 161.96 143.941 150.813 148.194 141.72C152.594 132.48 158.901 125.513 167.114 120.82C175.327 115.98 185.081 113.56 196.374 113.56C206.934 113.56 216.247 115.98 224.314 120.82C232.381 125.513 238.687 132.48 243.234 141.72C247.927 150.813 250.274 161.96 250.274 175.16ZM171.514 175.16C171.514 183.52 172.394 190.707 174.154 196.72C175.914 202.587 178.554 207.06 182.074 210.14C185.741 213.22 190.434 214.76 196.154 214.76C201.874 214.76 206.494 213.22 210.014 210.14C213.681 207.06 216.321 202.587 217.934 196.72C219.694 190.707 220.574 183.52 220.574 175.16C220.574 166.653 219.694 159.54 217.934 153.82C216.174 147.953 213.461 143.553 209.794 140.62C206.274 137.54 201.654 136 195.934 136C187.281 136 181.047 139.373 177.234 146.12C173.421 152.867 171.514 162.547 171.514 175.16ZM429.863 214.98C433.089 214.98 436.169 214.687 439.103 214.1C442.183 213.367 445.043 212.56 447.683 211.68V232.36C444.603 233.68 440.863 234.78 436.463 235.66C432.063 236.687 427.149 237.2 421.723 237.2C414.976 237.2 408.963 236.1 403.683 233.9C398.403 231.553 394.223 227.593 391.143 222.02C388.209 216.447 386.743 208.673 386.743 198.7V136.66H371.783V124.56L388.503 114.88L397.303 89.58H415.783V115.76H446.583V136.66H415.783V198.48C415.783 204.053 417.029 208.233 419.523 211.02C422.163 213.66 425.609 214.98 429.863 214.98ZM535.815 235L497.535 106.3H496.655C496.802 109.233 497.022 113.413 497.315 118.84C497.608 124.12 497.828 129.913 497.975 136.22C498.268 142.38 498.415 148.173 498.415 153.6V235H472.015V77.92H512.495L549.895 201.34H550.555L588.615 77.92H629.315V235H601.595V152.28C601.595 147.293 601.668 141.867 601.815 136C601.962 129.987 602.182 124.34 602.475 119.06C602.768 113.633 602.988 109.453 603.135 106.52H602.255L562.875 235H535.815ZM647.754 115.76H678.994L700.334 183.08C701.361 185.867 702.167 188.653 702.754 191.44C703.487 194.227 704.074 197.013 704.514 199.8C705.101 202.587 705.541 205.373 705.834 208.16H706.494C707.081 204.493 707.814 200.46 708.694 196.06C709.721 191.66 710.894 187.333 712.214 183.08L733.114 115.76H763.914L716.614 250.62C713.827 258.54 710.307 265.287 706.054 270.86C701.947 276.433 696.887 280.613 690.874 283.4C685.007 286.333 677.967 287.8 669.754 287.8C666.381 287.8 663.374 287.58 660.734 287.14C658.241 286.847 656.041 286.48 654.134 286.04V264.04C655.601 264.333 657.434 264.627 659.634 264.92C661.834 265.213 664.107 265.36 666.454 265.36C670.707 265.36 674.301 264.407 677.234 262.5C680.314 260.74 682.881 258.247 684.934 255.02C686.987 251.94 688.527 248.347 689.554 244.24L692.634 234.56L647.754 115.76ZM838.344 235H808.644V101.68H767.724V77.92H879.044V101.68H838.344V235ZM949.26 113.56C951.314 113.56 953.44 113.633 955.64 113.78C957.84 113.927 959.674 114.22 961.14 114.66L958.5 140.4C957.034 140.107 955.274 139.887 953.22 139.74C951.314 139.447 949.26 139.3 947.06 139.3C943.394 139.3 939.8 140.033 936.28 141.5C932.76 142.82 929.607 144.873 926.82 147.66C924.034 150.3 921.76 153.747 920 158C918.387 162.253 917.58 167.313 917.58 173.18V235H888.32V115.76H910.76L914.72 136.44H916.26C918.46 132.187 921.174 128.373 924.4 125C927.774 121.48 931.514 118.693 935.62 116.64C939.874 114.587 944.42 113.56 949.26 113.56ZM1009.53 115.76V235H980.494V115.76H1009.53ZM995.234 69.78C999.487 69.78 1003.15 70.88 1006.23 73.08C1009.31 75.1333 1010.85 78.8733 1010.85 84.3C1010.85 89.58 1009.31 93.3933 1006.23 95.74C1003.15 97.94 999.487 99.04 995.234 99.04C990.687 99.04 986.874 97.94 983.794 95.74C980.714 93.3933 979.174 89.58 979.174 84.3C979.174 78.8733 980.714 75.1333 983.794 73.08C986.874 70.88 990.687 69.78 995.234 69.78ZM1102.89 113.56C1115.8 113.56 1126.14 118.767 1133.91 129.18C1141.83 139.447 1145.79 154.773 1145.79 175.16C1145.79 188.653 1143.96 200.02 1140.29 209.26C1136.62 218.5 1131.49 225.467 1124.89 230.16C1118.29 234.853 1110.66 237.2 1102.01 237.2C1096.58 237.2 1091.82 236.467 1087.71 235C1083.75 233.387 1080.38 231.407 1077.59 229.06C1074.8 226.567 1072.46 223.927 1070.55 221.14H1069.01C1069.45 223.78 1069.82 226.787 1070.11 230.16C1070.4 233.387 1070.55 236.467 1070.55 239.4V287.8H1041.29V115.76H1065.05L1069.01 131.6H1070.55C1072.6 128.227 1075.02 125.22 1077.81 122.58C1080.74 119.793 1084.26 117.593 1088.37 115.98C1092.48 114.367 1097.32 113.56 1102.89 113.56ZM1093.65 136C1088.08 136 1083.53 137.32 1080.01 139.96C1076.64 142.453 1074.22 146.34 1072.75 151.62C1071.28 156.9 1070.55 163.5 1070.55 171.42V174.94C1070.55 183.447 1071.21 190.633 1072.53 196.5C1074 202.367 1076.42 206.84 1079.79 209.92C1083.31 213 1088.08 214.54 1094.09 214.54C1099.08 214.54 1103.18 212.927 1106.41 209.7C1109.64 206.473 1112.06 201.927 1113.67 196.06C1115.28 190.047 1116.09 182.933 1116.09 174.72C1116.09 162.4 1114.18 152.867 1110.37 146.12C1106.7 139.373 1101.13 136 1093.65 136Z"/>
</mask>
<path d="M82.06 99.48C75.9 99.48 70.3267 100.8 65.34 103.44C60.3533 106.08 56.1 109.893 52.58 114.88C49.2067 119.867 46.64 125.88 44.88 132.92C43.12 139.96 42.24 147.88 42.24 156.68C42.24 168.56 43.7067 178.753 46.64 187.26C49.5733 195.62 54.0467 202.073 60.06 206.62C66.0733 211.167 73.6267 213.44 82.72 213.44C89.0267 213.44 95.1867 212.78 101.2 211.46C107.213 209.993 113.3 208.087 119.46 205.74V229.72C113.447 232.36 107.213 234.267 100.76 235.44C94.4533 236.613 87.34 237.2 79.42 237.2C64.02 237.2 51.3333 233.9 41.36 227.3C31.3867 220.553 23.9067 211.167 18.92 199.14C14.08 186.967 11.66 172.74 11.66 156.46C11.66 144.58 13.2 133.727 16.28 123.9C19.36 114.073 23.9067 105.567 29.92 98.38C35.9333 91.1933 43.34 85.62 52.14 81.66C60.94 77.7 70.9867 75.72 82.28 75.72C89.76 75.72 97.3133 76.6733 104.94 78.58C112.713 80.34 119.533 82.8333 125.4 86.06L115.5 109.16C110.367 106.667 105.013 104.467 99.44 102.56C94.0133 100.507 88.22 99.48 82.06 99.48ZM250.274 175.16C250.274 185.133 249.027 193.933 246.534 201.56C244.041 209.187 240.374 215.713 235.534 221.14C230.841 226.42 225.121 230.453 218.374 233.24C211.627 235.88 204.074 237.2 195.714 237.2C187.941 237.2 180.681 235.88 173.934 233.24C167.334 230.453 161.614 226.42 156.774 221.14C152.081 215.713 148.414 209.187 145.774 201.56C143.134 193.933 141.814 185.133 141.814 175.16C141.814 161.96 143.941 150.813 148.194 141.72C152.594 132.48 158.901 125.513 167.114 120.82C175.327 115.98 185.081 113.56 196.374 113.56C206.934 113.56 216.247 115.98 224.314 120.82C232.381 125.513 238.687 132.48 243.234 141.72C247.927 150.813 250.274 161.96 250.274 175.16ZM171.514 175.16C171.514 183.52 172.394 190.707 174.154 196.72C175.914 202.587 178.554 207.06 182.074 210.14C185.741 213.22 190.434 214.76 196.154 214.76C201.874 214.76 206.494 213.22 210.014 210.14C213.681 207.06 216.321 202.587 217.934 196.72C219.694 190.707 220.574 183.52 220.574 175.16C220.574 166.653 219.694 159.54 217.934 153.82C216.174 147.953 213.461 143.553 209.794 140.62C206.274 137.54 201.654 136 195.934 136C187.281 136 181.047 139.373 177.234 146.12C173.421 152.867 171.514 162.547 171.514 175.16ZM429.863 214.98C433.089 214.98 436.169 214.687 439.103 214.1C442.183 213.367 445.043 212.56 447.683 211.68V232.36C444.603 233.68 440.863 234.78 436.463 235.66C432.063 236.687 427.149 237.2 421.723 237.2C414.976 237.2 408.963 236.1 403.683 233.9C398.403 231.553 394.223 227.593 391.143 222.02C388.209 216.447 386.743 208.673 386.743 198.7V136.66H371.783V124.56L388.503 114.88L397.303 89.58H415.783V115.76H446.583V136.66H415.783V198.48C415.783 204.053 417.029 208.233 419.523 211.02C422.163 213.66 425.609 214.98 429.863 214.98ZM535.815 235L497.535 106.3H496.655C496.802 109.233 497.022 113.413 497.315 118.84C497.608 124.12 497.828 129.913 497.975 136.22C498.268 142.38 498.415 148.173 498.415 153.6V235H472.015V77.92H512.495L549.895 201.34H550.555L588.615 77.92H629.315V235H601.595V152.28C601.595 147.293 601.668 141.867 601.815 136C601.962 129.987 602.182 124.34 602.475 119.06C602.768 113.633 602.988 109.453 603.135 106.52H602.255L562.875 235H535.815ZM647.754 115.76H678.994L700.334 183.08C701.361 185.867 702.167 188.653 702.754 191.44C703.487 194.227 704.074 197.013 704.514 199.8C705.101 202.587 705.541 205.373 705.834 208.16H706.494C707.081 204.493 707.814 200.46 708.694 196.06C709.721 191.66 710.894 187.333 712.214 183.08L733.114 115.76H763.914L716.614 250.62C713.827 258.54 710.307 265.287 706.054 270.86C701.947 276.433 696.887 280.613 690.874 283.4C685.007 286.333 677.967 287.8 669.754 287.8C666.381 287.8 663.374 287.58 660.734 287.14C658.241 286.847 656.041 286.48 654.134 286.04V264.04C655.601 264.333 657.434 264.627 659.634 264.92C661.834 265.213 664.107 265.36 666.454 265.36C670.707 265.36 674.301 264.407 677.234 262.5C680.314 260.74 682.881 258.247 684.934 255.02C686.987 251.94 688.527 248.347 689.554 244.24L692.634 234.56L647.754 115.76ZM838.344 235H808.644V101.68H767.724V77.92H879.044V101.68H838.344V235ZM949.26 113.56C951.314 113.56 953.44 113.633 955.64 113.78C957.84 113.927 959.674 114.22 961.14 114.66L958.5 140.4C957.034 140.107 955.274 139.887 953.22 139.74C951.314 139.447 949.26 139.3 947.06 139.3C943.394 139.3 939.8 140.033 936.28 141.5C932.76 142.82 929.607 144.873 926.82 147.66C924.034 150.3 921.76 153.747 920 158C918.387 162.253 917.58 167.313 917.58 173.18V235H888.32V115.76H910.76L914.72 136.44H916.26C918.46 132.187 921.174 128.373 924.4 125C927.774 121.48 931.514 118.693 935.62 116.64C939.874 114.587 944.42 113.56 949.26 113.56ZM1009.53 115.76V235H980.494V115.76H1009.53ZM995.234 69.78C999.487 69.78 1003.15 70.88 1006.23 73.08C1009.31 75.1333 1010.85 78.8733 1010.85 84.3C1010.85 89.58 1009.31 93.3933 1006.23 95.74C1003.15 97.94 999.487 99.04 995.234 99.04C990.687 99.04 986.874 97.94 983.794 95.74C980.714 93.3933 979.174 89.58 979.174 84.3C979.174 78.8733 980.714 75.1333 983.794 73.08C986.874 70.88 990.687 69.78 995.234 69.78ZM1102.89 113.56C1115.8 113.56 1126.14 118.767 1133.91 129.18C1141.83 139.447 1145.79 154.773 1145.79 175.16C1145.79 188.653 1143.96 200.02 1140.29 209.26C1136.62 218.5 1131.49 225.467 1124.89 230.16C1118.29 234.853 1110.66 237.2 1102.01 237.2C1096.58 237.2 1091.82 236.467 1087.71 235C1083.75 233.387 1080.38 231.407 1077.59 229.06C1074.8 226.567 1072.46 223.927 1070.55 221.14H1069.01C1069.45 223.78 1069.82 226.787 1070.11 230.16C1070.4 233.387 1070.55 236.467 1070.55 239.4V287.8H1041.29V115.76H1065.05L1069.01 131.6H1070.55C1072.6 128.227 1075.02 125.22 1077.81 122.58C1080.74 119.793 1084.26 117.593 1088.37 115.98C1092.48 114.367 1097.32 113.56 1102.89 113.56ZM1093.65 136C1088.08 136 1083.53 137.32 1080.01 139.96C1076.64 142.453 1074.22 146.34 1072.75 151.62C1071.28 156.9 1070.55 163.5 1070.55 171.42V174.94C1070.55 183.447 1071.21 190.633 1072.53 196.5C1074 202.367 1076.42 206.84 1079.79 209.92C1083.31 213 1088.08 214.54 1094.09 214.54C1099.08 214.54 1103.18 212.927 1106.41 209.7C1109.64 206.473 1112.06 201.927 1113.67 196.06C1115.28 190.047 1116.09 182.933 1116.09 174.72C1116.09 162.4 1114.18 152.867 1110.37 146.12C1106.7 139.373 1101.13 136 1093.65 136Z" fill="#124261"/>
<path d="M52.58 114.88L48.4952 111.997L48.4665 112.037L48.4386 112.078L52.58 114.88ZM44.88 132.92L49.7307 134.133H49.7307L44.88 132.92ZM46.64 187.26L41.9131 188.89L41.9175 188.903L41.922 188.915L46.64 187.26ZM60.06 206.62L57.0445 210.608L60.06 206.62ZM101.2 211.46L102.272 216.344L102.329 216.331L102.385 216.318L101.2 211.46ZM119.46 205.74H124.46V198.485L117.68 201.068L119.46 205.74ZM119.46 229.72L121.47 234.298L124.46 232.986V229.72H119.46ZM100.76 235.44L99.8656 230.521L99.8555 230.522L99.8455 230.524L100.76 235.44ZM41.36 227.3L38.5585 231.441L38.5795 231.456L38.6007 231.47L41.36 227.3ZM18.92 199.14L14.2738 200.987L14.2873 201.021L14.3013 201.055L18.92 199.14ZM16.28 123.9L21.0511 125.395H21.0511L16.28 123.9ZM29.92 98.38L26.0853 95.1714V95.1714L29.92 98.38ZM52.14 81.66L54.1918 86.2196H54.1918L52.14 81.66ZM104.94 78.58L103.727 83.4307L103.781 83.4442L103.836 83.4566L104.94 78.58ZM125.4 86.06L129.996 88.0296L131.781 83.8633L127.81 81.6789L125.4 86.06ZM115.5 109.16L113.315 113.658L118.031 115.948L120.096 111.13L115.5 109.16ZM99.44 102.56L97.6705 107.236L97.7456 107.265L97.8216 107.291L99.44 102.56ZM82.06 99.48V94.48C75.1609 94.48 68.7727 95.9652 63.0006 99.021L65.34 103.44L67.6794 107.859C71.8807 105.635 76.6391 104.48 82.06 104.48V99.48ZM65.34 103.44L63.0006 99.021C57.2638 102.058 52.4304 106.422 48.4952 111.997L52.58 114.88L56.6648 117.763C59.7696 113.365 63.4429 110.102 67.6794 107.859L65.34 103.44ZM52.58 114.88L48.4386 112.078C44.6783 117.637 41.9028 124.213 40.0293 131.707L44.88 132.92L49.7307 134.133C51.3772 127.547 53.7351 122.096 56.7214 117.682L52.58 114.88ZM44.88 132.92L40.0293 131.707C38.1518 139.217 37.24 147.554 37.24 156.68H42.24H47.24C47.24 148.206 48.0882 140.703 49.7307 134.133L44.88 132.92ZM42.24 156.68H37.24C37.24 168.948 38.7515 179.721 41.9131 188.89L46.64 187.26L51.3669 185.63C48.6618 177.785 47.24 168.172 47.24 156.68H42.24ZM46.64 187.26L41.922 188.915C45.1227 198.038 50.117 205.37 57.0445 210.608L60.06 206.62L63.0755 202.632C57.9763 198.776 54.0239 193.202 51.358 185.605L46.64 187.26ZM60.06 206.62L57.0445 210.608C64.0936 215.938 72.7689 218.44 82.72 218.44V213.44V208.44C74.4845 208.44 68.053 206.395 63.0755 202.632L60.06 206.62ZM82.72 213.44V218.44C89.3783 218.44 95.8981 217.743 102.272 216.344L101.2 211.46L100.128 206.576C94.4753 207.817 88.675 208.44 82.72 208.44V213.44ZM101.2 211.46L102.385 216.318C108.613 214.799 114.898 212.828 121.24 210.412L119.46 205.74L117.68 201.068C111.702 203.345 105.814 205.188 100.015 206.602L101.2 211.46ZM119.46 205.74H114.46V229.72H119.46H124.46V205.74H119.46ZM119.46 229.72L117.45 225.142C111.794 227.625 105.935 229.417 99.8656 230.521L100.76 235.44L101.654 240.359C108.492 239.116 115.1 237.095 121.47 234.298L119.46 229.72ZM100.76 235.44L99.8455 230.524C93.9008 231.63 87.1014 232.2 79.42 232.2V237.2V242.2C87.5786 242.2 95.0059 241.596 101.675 240.356L100.76 235.44ZM79.42 237.2V232.2C64.7215 232.2 53.0686 229.053 44.1193 223.13L41.36 227.3L38.6007 231.47C49.5981 238.747 63.3185 242.2 79.42 242.2V237.2ZM41.36 227.3L44.1615 223.159C35.065 217.005 28.1824 208.424 23.5387 197.225L18.92 199.14L14.3013 201.055C19.6309 213.909 27.7084 224.102 38.5585 231.441L41.36 227.3ZM18.92 199.14L23.5662 197.293C19.0091 185.831 16.66 172.256 16.66 156.46H11.66H6.66C6.66 173.224 9.15089 188.102 14.2738 200.987L18.92 199.14ZM11.66 156.46H16.66C16.66 145.011 18.1441 134.67 21.0511 125.395L16.28 123.9L11.5089 122.405C8.25594 132.783 6.66 144.149 6.66 156.46H11.66ZM16.28 123.9L21.0511 125.395C23.9541 116.133 28.203 108.224 33.7547 101.589L29.92 98.38L26.0853 95.1714C19.6103 102.91 14.7659 112.013 11.5089 122.405L16.28 123.9ZM29.92 98.38L33.7547 101.589C39.2687 94.9987 46.0593 89.8792 54.1918 86.2196L52.14 81.66L50.0882 77.1004C40.6207 81.3608 32.598 87.388 26.0853 95.1714L29.92 98.38ZM52.14 81.66L54.1918 86.2196C62.2461 82.5952 71.5747 80.72 82.28 80.72V75.72V70.72C70.3986 70.72 59.6339 72.8048 50.0882 77.1004L52.14 81.66ZM82.28 75.72V80.72C89.3309 80.72 96.4771 81.6181 103.727 83.4307L104.94 78.58L106.153 73.7293C98.1496 71.7285 90.1891 70.72 82.28 70.72V75.72ZM104.94 78.58L103.836 83.4566C111.237 85.1323 117.603 87.4778 122.99 90.4411L125.4 86.06L127.81 81.6789C121.464 78.1888 114.19 75.5477 106.044 73.7034L104.94 78.58ZM125.4 86.06L120.804 84.0904L110.904 107.19L115.5 109.16L120.096 111.13L129.996 88.0296L125.4 86.06ZM115.5 109.16L117.685 104.662C112.362 102.077 106.819 99.7998 101.058 97.8292L99.44 102.56L97.8216 107.291C103.208 109.133 108.372 111.256 113.315 113.658L115.5 109.16ZM99.44 102.56L101.209 97.8836C95.1832 95.6034 88.7869 94.48 82.06 94.48V99.48V104.48C87.6531 104.48 92.8434 105.41 97.6705 107.236L99.44 102.56ZM246.534 201.56L241.782 200.006L246.534 201.56ZM235.534 221.14L231.803 217.812L231.797 217.818L235.534 221.14ZM218.374 233.24L220.196 237.896L220.24 237.879L220.283 237.861L218.374 233.24ZM173.934 233.24L171.989 237.846L172.05 237.872L172.112 237.896L173.934 233.24ZM156.774 221.14L152.992 224.411L153.039 224.465L153.088 224.519L156.774 221.14ZM145.774 201.56L150.499 199.924L145.774 201.56ZM148.194 141.72L143.68 139.57L143.672 139.586L143.665 139.602L148.194 141.72ZM167.114 120.82L169.595 125.161L169.624 125.145L169.653 125.128L167.114 120.82ZM224.314 120.82L221.742 125.107L221.77 125.125L221.8 125.142L224.314 120.82ZM243.234 141.72L238.748 143.928L238.769 143.971L238.791 144.013L243.234 141.72ZM174.154 196.72L169.355 198.124L169.36 198.141L169.365 198.157L174.154 196.72ZM182.074 210.14L178.782 213.903L178.819 213.936L178.858 213.969L182.074 210.14ZM210.014 210.14L206.798 206.311L206.759 206.344L206.722 206.377L210.014 210.14ZM217.934 196.72L213.135 195.316L213.124 195.355L213.113 195.394L217.934 196.72ZM217.934 153.82L213.145 155.257L213.15 155.274L213.155 155.29L217.934 153.82ZM209.794 140.62L206.502 144.383L206.585 144.455L206.671 144.524L209.794 140.62ZM177.234 146.12L181.587 148.58L177.234 146.12ZM250.274 175.16H245.274C245.274 184.728 244.077 192.986 241.782 200.006L246.534 201.56L251.287 203.114C253.978 194.881 255.274 185.538 255.274 175.16H250.274ZM246.534 201.56L241.782 200.006C239.48 207.046 236.138 212.951 231.803 217.812L235.534 221.14L239.266 224.468C244.61 218.476 248.601 211.328 251.287 203.114L246.534 201.56ZM235.534 221.14L231.797 217.818C227.624 222.513 222.536 226.111 216.465 228.619L218.374 233.24L220.283 237.861C227.705 234.795 234.058 230.327 239.271 224.462L235.534 221.14ZM218.374 233.24L216.552 228.584C210.468 230.964 203.545 232.2 195.714 232.2V237.2V242.2C204.603 242.2 212.787 240.796 220.196 237.896L218.374 233.24ZM195.714 237.2V232.2C188.518 232.2 181.881 230.98 175.756 228.584L173.934 233.24L172.112 237.896C179.481 240.78 187.363 242.2 195.714 242.2V237.2ZM173.934 233.24L175.879 228.634C169.941 226.126 164.814 222.512 160.46 217.761L156.774 221.14L153.088 224.519C158.414 230.328 164.728 234.78 171.989 237.846L173.934 233.24ZM156.774 221.14L160.556 217.869C156.327 212.979 152.957 207.026 150.499 199.924L145.774 201.56L141.049 203.196C143.871 211.348 147.835 218.448 152.992 224.411L156.774 221.14ZM145.774 201.56L150.499 199.924C148.078 192.931 146.814 184.703 146.814 175.16H141.814H136.814C136.814 185.564 138.19 194.936 141.049 203.196L145.774 201.56ZM141.814 175.16H146.814C146.814 162.472 148.861 152.094 152.723 143.838L148.194 141.72L143.665 139.602C139.02 149.532 136.814 161.448 136.814 175.16H141.814ZM148.194 141.72L152.708 143.87C156.708 135.471 162.34 129.307 169.595 125.161L167.114 120.82L164.633 116.479C155.461 121.72 148.481 129.489 143.68 139.57L148.194 141.72ZM167.114 120.82L169.653 125.128C176.965 120.818 185.808 118.56 196.374 118.56V113.56V108.56C184.354 108.56 173.689 111.142 164.576 116.512L167.114 120.82ZM196.374 113.56V118.56C206.142 118.56 214.544 120.789 221.742 125.107L224.314 120.82L226.887 116.533C217.951 111.171 207.726 108.56 196.374 108.56V113.56ZM224.314 120.82L221.8 125.142C228.928 129.289 234.589 135.476 238.748 143.928L243.234 141.72L247.72 139.512C242.786 129.484 235.834 121.738 226.829 116.498L224.314 120.82ZM243.234 141.72L238.791 144.013C243.028 152.222 245.274 162.534 245.274 175.16H250.274H255.274C255.274 161.386 252.827 149.405 247.677 139.427L243.234 141.72ZM171.514 175.16H166.514C166.514 183.847 167.426 191.532 169.355 198.124L174.154 196.72L178.953 195.316C177.362 189.882 176.514 183.193 176.514 175.16H171.514ZM174.154 196.72L169.365 198.157C171.313 204.651 174.366 210.039 178.782 213.903L182.074 210.14L185.367 206.377C182.742 204.081 180.515 200.523 178.943 195.283L174.154 196.72ZM182.074 210.14L178.858 213.969C183.593 217.946 189.497 219.76 196.154 219.76V214.76V209.76C191.371 209.76 187.888 208.494 185.29 206.311L182.074 210.14ZM196.154 214.76V219.76C202.804 219.76 208.683 217.948 213.307 213.903L210.014 210.14L206.722 206.377C204.305 208.492 200.945 209.76 196.154 209.76V214.76ZM210.014 210.14L213.23 213.969C217.86 210.08 220.946 204.626 222.755 198.046L217.934 196.72L213.113 195.394C211.696 200.548 209.502 204.04 206.798 206.311L210.014 210.14ZM217.934 196.72L222.733 198.124C224.662 191.532 225.574 183.847 225.574 175.16H220.574H215.574C215.574 183.193 214.726 189.882 213.135 195.316L217.934 196.72ZM220.574 175.16H225.574C225.574 166.347 224.667 158.7 222.713 152.35L217.934 153.82L213.155 155.29C214.721 160.38 215.574 166.96 215.574 175.16H220.574ZM217.934 153.82L222.723 152.383C220.759 145.837 217.587 140.451 212.918 136.716L209.794 140.62L206.671 144.524C209.335 146.656 211.589 150.069 213.145 155.257L217.934 153.82ZM209.794 140.62L213.087 136.857C208.463 132.812 202.584 131 195.934 131V136V141C200.725 141 204.085 142.268 206.502 144.383L209.794 140.62ZM195.934 136V131C185.733 131 177.7 135.134 172.881 143.66L177.234 146.12L181.587 148.58C184.395 143.613 188.829 141 195.934 141V136ZM177.234 146.12L172.881 143.66C168.456 151.488 166.514 162.168 166.514 175.16H171.514H176.514C176.514 162.925 178.385 154.245 181.587 148.58L177.234 146.12ZM439.103 214.1L440.083 219.003L440.173 218.985L440.261 218.964L439.103 214.1ZM447.683 211.68H452.683V204.743L446.102 206.937L447.683 211.68ZM447.683 232.36L449.652 236.956L452.683 235.657V232.36H447.683ZM436.463 235.66L435.482 230.757L435.404 230.773L435.327 230.791L436.463 235.66ZM403.683 233.9L401.652 238.469L401.706 238.493L401.76 238.515L403.683 233.9ZM391.143 222.02L386.718 224.349L386.742 224.394L386.767 224.438L391.143 222.02ZM386.743 136.66H391.743V131.66H386.743V136.66ZM371.783 136.66H366.783V141.66H371.783V136.66ZM371.783 124.56L369.278 120.233L366.783 121.677V124.56H371.783ZM388.503 114.88L391.008 119.207L392.615 118.277L393.225 116.523L388.503 114.88ZM397.303 89.58V84.58H393.748L392.58 87.9374L397.303 89.58ZM415.783 89.58H420.783V84.58H415.783V89.58ZM415.783 115.76H410.783V120.76H415.783V115.76ZM446.583 115.76H451.583V110.76H446.583V115.76ZM446.583 136.66V141.66H451.583V136.66H446.583ZM415.783 136.66V131.66H410.783V136.66H415.783ZM419.523 211.02L415.797 214.354L415.889 214.457L415.987 214.556L419.523 211.02ZM429.863 214.98V219.98C433.393 219.98 436.803 219.659 440.083 219.003L439.103 214.1L438.122 209.197C435.536 209.714 432.786 209.98 429.863 209.98V214.98ZM439.103 214.1L440.261 218.964C443.465 218.201 446.467 217.356 449.264 216.423L447.683 211.68L446.102 206.937C443.618 207.764 440.901 208.532 437.945 209.236L439.103 214.1ZM447.683 211.68H442.683V232.36H447.683H452.683V211.68H447.683ZM447.683 232.36L445.713 227.764C443.038 228.911 439.649 229.924 435.482 230.757L436.463 235.66L437.443 240.563C442.076 239.636 446.168 238.449 449.652 236.956L447.683 232.36ZM436.463 235.66L435.327 230.791C431.365 231.715 426.841 232.2 421.723 232.2V237.2V242.2C427.458 242.2 432.761 241.658 437.599 240.529L436.463 235.66ZM421.723 237.2V232.2C415.52 232.2 410.177 231.189 405.606 229.285L403.683 233.9L401.76 238.515C407.748 241.011 414.433 242.2 421.723 242.2V237.2ZM403.683 233.9L405.714 229.331C401.531 227.472 398.129 224.324 395.519 219.602L391.143 222.02L386.767 224.438C390.317 230.862 395.275 235.635 401.652 238.469L403.683 233.9ZM391.143 222.02L395.567 219.691C393.17 215.136 391.743 208.288 391.743 198.7H386.743H381.743C381.743 209.059 383.249 217.757 386.718 224.349L391.143 222.02ZM386.743 198.7H391.743V136.66H386.743H381.743V198.7H386.743ZM386.743 136.66V131.66H371.783V136.66V141.66H386.743V136.66ZM371.783 136.66H376.783V124.56H371.783H366.783V136.66H371.783ZM371.783 124.56L374.288 128.887L391.008 119.207L388.503 114.88L385.998 110.553L369.278 120.233L371.783 124.56ZM388.503 114.88L393.225 116.523L402.025 91.2226L397.303 89.58L392.58 87.9374L383.78 113.237L388.503 114.88ZM397.303 89.58V94.58H415.783V89.58V84.58H397.303V89.58ZM415.783 89.58H410.783V115.76H415.783H420.783V89.58H415.783ZM415.783 115.76V120.76H446.583V115.76V110.76H415.783V115.76ZM446.583 115.76H441.583V136.66H446.583H451.583V115.76H446.583ZM446.583 136.66V131.66H415.783V136.66V141.66H446.583V136.66ZM415.783 136.66H410.783V198.48H415.783H420.783V136.66H415.783ZM415.783 198.48H410.783C410.783 204.695 412.161 210.291 415.797 214.354L419.523 211.02L423.249 207.686C421.898 206.176 420.783 203.411 420.783 198.48H415.783ZM419.523 211.02L415.987 214.556C419.698 218.266 424.484 219.98 429.863 219.98V214.98V209.98C426.735 209.98 424.628 209.054 423.058 207.484L419.523 211.02ZM535.815 235L531.023 236.425L532.086 240H535.815V235ZM497.535 106.3L502.328 104.875L501.264 101.3H497.535V106.3ZM496.655 106.3V101.3H491.399L491.661 106.55L496.655 106.3ZM497.315 118.84L492.322 119.11L492.323 119.117L497.315 118.84ZM497.975 136.22L492.977 136.336L492.978 136.397L492.981 136.458L497.975 136.22ZM498.415 235V240H503.415V235H498.415ZM472.015 235H467.015V240H472.015V235ZM472.015 77.92V72.92H467.015V77.92H472.015ZM512.495 77.92L517.28 76.47L516.205 72.92H512.495V77.92ZM549.895 201.34L545.11 202.79L546.186 206.34H549.895V201.34ZM550.555 201.34V206.34H554.246L555.333 202.813L550.555 201.34ZM588.615 77.92V72.92H584.925L583.837 76.4466L588.615 77.92ZM629.315 77.92H634.315V72.92H629.315V77.92ZM629.315 235V240H634.315V235H629.315ZM601.595 235H596.595V240H601.595V235ZM601.815 136L606.814 136.125L606.814 136.122L601.815 136ZM602.475 119.06L607.467 119.337L607.468 119.33L602.475 119.06ZM603.135 106.52L608.129 106.77L608.391 101.52H603.135V106.52ZM602.255 106.52V101.52H598.558L597.475 105.055L602.255 106.52ZM562.875 235V240H566.572L567.656 236.465L562.875 235ZM535.815 235L540.608 233.575L502.328 104.875L497.535 106.3L492.743 107.725L531.023 236.425L535.815 235ZM497.535 106.3V101.3H496.655V106.3V111.3H497.535V106.3ZM496.655 106.3L491.661 106.55C491.809 109.493 492.029 113.681 492.322 119.11L497.315 118.84L502.308 118.57C502.015 113.146 501.795 108.973 501.649 106.05L496.655 106.3ZM497.315 118.84L492.323 119.117C492.613 124.335 492.831 130.073 492.977 136.336L497.975 136.22L502.974 136.104C502.826 129.753 502.604 123.905 502.307 118.563L497.315 118.84ZM497.975 136.22L492.981 136.458C493.271 142.549 493.415 148.262 493.415 153.6H498.415H503.415C503.415 148.084 503.266 142.211 502.97 135.982L497.975 136.22ZM498.415 153.6H493.415V235H498.415H503.415V153.6H498.415ZM498.415 235V230H472.015V235V240H498.415V235ZM472.015 235H477.015V77.92H472.015H467.015V235H472.015ZM472.015 77.92V82.92H512.495V77.92V72.92H472.015V77.92ZM512.495 77.92L507.71 79.37L545.11 202.79L549.895 201.34L554.68 199.89L517.28 76.47L512.495 77.92ZM549.895 201.34V206.34H550.555V201.34V196.34H549.895V201.34ZM550.555 201.34L555.333 202.813L593.393 79.3934L588.615 77.92L583.837 76.4466L545.777 199.867L550.555 201.34ZM588.615 77.92V82.92H629.315V77.92V72.92H588.615V77.92ZM629.315 77.92H624.315V235H629.315H634.315V77.92H629.315ZM629.315 235V230H601.595V235V240H629.315V235ZM601.595 235H606.595V152.28H601.595H596.595V235H601.595ZM601.595 152.28H606.595C606.595 147.341 606.668 141.957 606.814 136.125L601.815 136L596.817 135.875C596.669 141.776 596.595 147.245 596.595 152.28H601.595ZM601.815 136L606.814 136.122C606.959 130.154 607.177 124.559 607.467 119.337L602.475 119.06L597.483 118.783C597.186 124.121 596.964 129.82 596.817 135.878L601.815 136ZM602.475 119.06L607.468 119.33C607.761 113.901 607.982 109.713 608.129 106.77L603.135 106.52L598.141 106.27C597.995 109.193 597.776 113.366 597.482 118.79L602.475 119.06ZM603.135 106.52V101.52H602.255V106.52V111.52H603.135V106.52ZM602.255 106.52L597.475 105.055L558.095 233.535L562.875 235L567.656 236.465L607.036 107.985L602.255 106.52ZM562.875 235V230H535.815V235V240H562.875V235ZM647.754 115.76V110.76H640.52L643.077 117.527L647.754 115.76ZM678.994 115.76L683.76 114.249L682.654 110.76H678.994V115.76ZM700.334 183.08L695.568 184.591L695.602 184.701L695.642 184.809L700.334 183.08ZM702.754 191.44L697.861 192.47L697.887 192.592L697.919 192.712L702.754 191.44ZM704.514 199.8L699.575 200.58L699.595 200.706L699.621 200.83L704.514 199.8ZM705.834 208.16L700.861 208.683L701.333 213.16H705.834V208.16ZM706.494 208.16V213.16H710.758L711.431 208.95L706.494 208.16ZM708.694 196.06L703.825 194.924L703.807 195.001L703.791 195.079L708.694 196.06ZM712.214 183.08L707.439 181.598L707.439 181.598L712.214 183.08ZM733.114 115.76V110.76H729.431L728.339 114.278L733.114 115.76ZM763.914 115.76L768.632 117.415L770.966 110.76H763.914V115.76ZM716.614 250.62L721.331 252.28L721.332 252.275L716.614 250.62ZM706.054 270.86L702.079 267.827L702.054 267.86L702.029 267.894L706.054 270.86ZM690.874 283.4L688.772 278.863L688.704 278.895L688.638 278.928L690.874 283.4ZM660.734 287.14L661.556 282.208L661.437 282.188L661.318 282.174L660.734 287.14ZM654.134 286.04H649.134V290.018L653.01 290.912L654.134 286.04ZM654.134 264.04L655.115 259.137L649.134 257.941V264.04H654.134ZM659.634 264.92L658.973 269.876L659.634 264.92ZM677.234 262.5L674.753 258.159L674.629 258.23L674.509 258.308L677.234 262.5ZM684.934 255.02L680.774 252.247L680.744 252.291L680.716 252.336L684.934 255.02ZM689.554 244.24L684.789 242.724L684.741 242.874L684.703 243.027L689.554 244.24ZM692.634 234.56L697.399 236.076L697.926 234.419L697.311 232.793L692.634 234.56ZM647.754 115.76V120.76H678.994V115.76V110.76H647.754V115.76ZM678.994 115.76L674.228 117.271L695.568 184.591L700.334 183.08L705.1 181.569L683.76 114.249L678.994 115.76ZM700.334 183.08L695.642 184.809C696.589 187.377 697.327 189.931 697.861 192.47L702.754 191.44L707.647 190.41C707.008 187.376 706.133 184.356 705.026 181.351L700.334 183.08ZM702.754 191.44L697.919 192.712C698.61 195.34 699.162 197.962 699.575 200.58L704.514 199.8L709.453 199.02C708.986 196.064 708.364 193.113 707.589 190.168L702.754 191.44ZM704.514 199.8L699.621 200.83C700.173 203.452 700.586 206.07 700.861 208.683L705.834 208.16L710.806 207.637C710.495 204.677 710.028 201.721 709.407 198.77L704.514 199.8ZM705.834 208.16V213.16H706.494V208.16V203.16H705.834V208.16ZM706.494 208.16L711.431 208.95C712.006 205.359 712.727 201.39 713.597 197.041L708.694 196.06L703.791 195.079C702.901 199.53 702.155 203.628 701.557 207.37L706.494 208.16ZM708.694 196.06L713.563 197.196C714.563 192.911 715.705 188.7 716.989 184.562L712.214 183.08L707.439 181.598C706.083 185.967 704.878 190.409 703.825 194.924L708.694 196.06ZM712.214 183.08L716.989 184.562L737.889 117.242L733.114 115.76L728.339 114.278L707.439 181.598L712.214 183.08ZM733.114 115.76V120.76H763.914V115.76V110.76H733.114V115.76ZM763.914 115.76L759.196 114.105L711.896 248.965L716.614 250.62L721.332 252.275L768.632 117.415L763.914 115.76ZM716.614 250.62L711.897 248.96C709.251 256.481 705.959 262.742 702.079 267.827L706.054 270.86L710.029 273.893C714.655 267.831 718.403 260.599 721.33 252.28L716.614 250.62ZM706.054 270.86L702.029 267.894C698.398 272.822 693.988 276.446 688.772 278.863L690.874 283.4L692.976 287.937C699.787 284.78 705.497 280.045 710.079 273.826L706.054 270.86ZM690.874 283.4L688.638 278.928C683.618 281.438 677.382 282.8 669.754 282.8V287.8V292.8C678.552 292.8 686.396 291.229 693.11 287.872L690.874 283.4ZM669.754 287.8V282.8C666.589 282.8 663.865 282.593 661.556 282.208L660.734 287.14L659.912 292.072C662.883 292.567 666.173 292.8 669.754 292.8V287.8ZM660.734 287.14L661.318 282.174C658.958 281.897 656.945 281.557 655.258 281.168L654.134 286.04L653.01 290.912C655.136 291.403 657.523 291.797 660.15 292.106L660.734 287.14ZM654.134 286.04H659.134V264.04H654.134H649.134V286.04H654.134ZM654.134 264.04L653.153 268.943C654.763 269.265 656.712 269.575 658.973 269.876L659.634 264.92L660.295 259.964C658.156 259.679 656.438 259.402 655.115 259.137L654.134 264.04ZM659.634 264.92L658.973 269.876C661.404 270.2 663.899 270.36 666.454 270.36V265.36V260.36C664.316 260.36 662.264 260.226 660.295 259.964L659.634 264.92ZM666.454 265.36V270.36C671.464 270.36 676.054 269.23 679.959 266.692L677.234 262.5L674.509 258.308C672.547 259.583 669.95 260.36 666.454 260.36V265.36ZM677.234 262.5L679.715 266.841C683.554 264.647 686.698 261.561 689.152 257.704L684.934 255.02L680.716 252.336C679.063 254.932 677.074 256.833 674.753 258.159L677.234 262.5ZM684.934 255.02L689.094 257.793C691.507 254.174 693.259 250.037 694.405 245.453L689.554 244.24L684.703 243.027C683.796 246.657 682.467 249.706 680.774 252.247L684.934 255.02ZM689.554 244.24L694.319 245.756L697.399 236.076L692.634 234.56L687.869 233.044L684.789 242.724L689.554 244.24ZM692.634 234.56L697.311 232.793L652.431 113.993L647.754 115.76L643.077 117.527L687.957 236.327L692.634 234.56ZM838.344 235V240H843.344V235H838.344ZM808.644 235H803.644V240H808.644V235ZM808.644 101.68H813.644V96.68H808.644V101.68ZM767.724 101.68H762.724V106.68H767.724V101.68ZM767.724 77.92V72.92H762.724V77.92H767.724ZM879.044 77.92H884.044V72.92H879.044V77.92ZM879.044 101.68V106.68H884.044V101.68H879.044ZM838.344 101.68V96.68H833.344V101.68H838.344ZM838.344 235V230H808.644V235V240H838.344V235ZM808.644 235H813.644V101.68H808.644H803.644V235H808.644ZM808.644 101.68V96.68H767.724V101.68V106.68H808.644V101.68ZM767.724 101.68H772.724V77.92H767.724H762.724V101.68H767.724ZM767.724 77.92V82.92H879.044V77.92V72.92H767.724V77.92ZM879.044 77.92H874.044V101.68H879.044H884.044V77.92H879.044ZM879.044 101.68V96.68H838.344V101.68V106.68H879.044V101.68ZM838.344 101.68H833.344V235H838.344H843.344V101.68H838.344ZM955.641 113.78L955.308 118.769L955.641 113.78ZM961.141 114.66L966.114 115.17L966.536 111.059L962.577 109.871L961.141 114.66ZM958.5 140.4L957.52 145.303L962.913 146.382L963.474 140.91L958.5 140.4ZM953.22 139.74L952.46 144.682L952.661 144.713L952.864 144.727L953.22 139.74ZM936.28 141.5L938.036 146.182L938.12 146.15L938.204 146.115L936.28 141.5ZM926.82 147.66L930.259 151.29L930.308 151.243L930.356 151.196L926.82 147.66ZM920 158L915.38 156.088L915.352 156.157L915.326 156.227L920 158ZM917.58 235V240H922.58V235H917.58ZM888.32 235H883.32V240H888.32V235ZM888.32 115.76V110.76H883.32V115.76H888.32ZM910.76 115.76L915.671 114.82L914.894 110.76H910.76V115.76ZM914.72 136.44L909.81 137.38L910.587 141.44H914.72V136.44ZM916.26 136.44V141.44H919.304L920.702 138.737L916.26 136.44ZM924.4 125L920.791 121.54L920.787 121.544L924.4 125ZM935.62 116.64L933.447 112.137L933.415 112.152L933.384 112.168L935.62 116.64ZM949.26 113.56V118.56C951.195 118.56 953.211 118.629 955.308 118.769L955.641 113.78L955.973 108.791C953.67 108.638 951.433 108.56 949.26 108.56V113.56ZM955.641 113.78L955.308 118.769C957.282 118.901 958.715 119.153 959.704 119.449L961.141 114.66L962.577 109.871C960.632 109.287 958.399 108.953 955.973 108.791L955.641 113.78ZM961.141 114.66L956.167 114.15L953.527 139.89L958.5 140.4L963.474 140.91L966.114 115.17L961.141 114.66ZM958.5 140.4L959.481 135.497C957.748 135.15 955.768 134.909 953.577 134.753L953.22 139.74L952.864 144.727C954.78 144.864 956.32 145.063 957.52 145.303L958.5 140.4ZM953.22 139.74L953.981 134.798C951.79 134.461 949.48 134.3 947.06 134.3V139.3V144.3C949.041 144.3 950.837 144.432 952.46 144.682L953.22 139.74ZM947.06 139.3V134.3C942.707 134.3 938.462 135.174 934.357 136.885L936.28 141.5L938.204 146.115C941.139 144.892 944.08 144.3 947.06 144.3V139.3ZM936.28 141.5L934.525 136.818C930.304 138.401 926.551 140.858 923.285 144.124L926.82 147.66L930.356 151.196C932.663 148.889 935.217 147.239 938.036 146.182L936.28 141.5ZM926.82 147.66L923.382 144.03C919.994 147.24 917.357 151.313 915.38 156.088L920 158L924.621 159.912C926.164 156.181 928.074 153.36 930.259 151.29L926.82 147.66ZM920 158L915.326 156.227C913.445 161.184 912.58 166.874 912.58 173.18H917.58H922.58C922.58 167.752 923.329 163.322 924.675 159.773L920 158ZM917.58 173.18H912.58V235H917.58H922.58V173.18H917.58ZM917.58 235V230H888.32V235V240H917.58V235ZM888.32 235H893.32V115.76H888.32H883.32V235H888.32ZM888.32 115.76V120.76H910.76V115.76V110.76H888.32V115.76ZM910.76 115.76L905.85 116.7L909.81 137.38L914.72 136.44L919.631 135.5L915.671 114.82L910.76 115.76ZM914.72 136.44V141.44H916.26V136.44V131.44H914.72V136.44ZM916.26 136.44L920.702 138.737C922.688 134.897 925.125 131.476 928.014 128.456L924.4 125L920.787 121.544C917.222 125.271 914.233 129.477 911.819 134.143L916.26 136.44ZM924.4 125L928.01 128.46C931.012 125.328 934.293 122.894 937.857 121.112L935.62 116.64L933.384 112.168C928.734 114.493 924.536 117.632 920.791 121.54L924.4 125ZM935.62 116.64L937.794 121.143C941.353 119.425 945.154 118.56 949.26 118.56V113.56V108.56C943.687 108.56 938.395 109.748 933.447 112.137L935.62 116.64ZM1009.53 115.76H1014.53V110.76H1009.53V115.76ZM1009.53 235V240H1014.53V235H1009.53ZM980.494 235H975.494V240H980.494V235ZM980.494 115.76V110.76H975.494V115.76H980.494ZM1006.23 73.08L1003.33 77.1487L1003.39 77.1955L1003.46 77.2402L1006.23 73.08ZM1006.23 95.74L1009.14 99.8087L1009.2 99.7639L1009.26 99.7172L1006.23 95.74ZM983.794 95.74L980.763 99.7172L980.825 99.7639L980.887 99.8087L983.794 95.74ZM983.794 73.08L986.567 77.2402L986.634 77.1955L986.7 77.1487L983.794 73.08ZM1009.53 115.76H1004.53V235H1009.53H1014.53V115.76H1009.53ZM1009.53 235V230H980.494V235V240H1009.53V235ZM980.494 235H985.494V115.76H980.494H975.494V235H980.494ZM980.494 115.76V120.76H1009.53V115.76V110.76H980.494V115.76ZM995.234 69.78V74.78C998.579 74.78 1001.2 75.6281 1003.33 77.1487L1006.23 73.08L1009.14 69.0113C1005.11 66.1319 1000.39 64.78 995.234 64.78V69.78ZM1006.23 73.08L1003.46 77.2402C1004.58 77.984 1005.85 79.7126 1005.85 84.3H1010.85H1015.85C1015.85 78.0341 1014.05 72.2827 1009.01 68.9197L1006.23 73.08ZM1010.85 84.3H1005.85C1005.85 88.6281 1004.63 90.6781 1003.2 91.7628L1006.23 95.74L1009.26 99.7172C1014 96.1086 1015.85 90.5319 1015.85 84.3H1010.85ZM1006.23 95.74L1003.33 91.6713C1001.2 93.1919 998.579 94.04 995.234 94.04V99.04V104.04C1000.39 104.04 1005.11 102.688 1009.14 99.8087L1006.23 95.74ZM995.234 99.04V94.04C991.515 94.04 988.773 93.1519 986.7 91.6713L983.794 95.74L980.887 99.8087C984.975 102.728 989.859 104.04 995.234 104.04V99.04ZM983.794 95.74L986.824 91.7628C985.4 90.6781 984.174 88.6281 984.174 84.3H979.174H974.174C974.174 90.5319 976.027 96.1086 980.763 99.7172L983.794 95.74ZM979.174 84.3H984.174C984.174 79.7126 985.451 77.984 986.567 77.2402L983.794 73.08L981.02 68.9197C975.976 72.2826 974.174 78.0341 974.174 84.3H979.174ZM983.794 73.08L986.7 77.1487C988.773 75.6681 991.515 74.78 995.234 74.78V69.78V64.78C989.859 64.78 984.975 66.0919 980.887 69.0113L983.794 73.08ZM1133.91 129.18L1129.9 132.171L1129.93 132.203L1129.95 132.234L1133.91 129.18ZM1140.29 209.26L1135.64 207.416L1140.29 209.26ZM1124.89 230.16L1127.79 234.235L1124.89 230.16ZM1087.71 235L1085.82 239.63L1085.92 239.672L1086.03 239.709L1087.71 235ZM1077.59 229.06L1074.26 232.786L1074.31 232.836L1074.37 232.885L1077.59 229.06ZM1070.55 221.14L1074.68 218.317L1073.19 216.14H1070.55V221.14ZM1069.01 221.14V216.14H1063.11L1064.08 221.962L1069.01 221.14ZM1070.11 230.16L1065.13 230.593L1065.13 230.603L1065.13 230.613L1070.11 230.16ZM1070.55 287.8V292.8H1075.55V287.8H1070.55ZM1041.29 287.8H1036.29V292.8H1041.29V287.8ZM1041.29 115.76V110.76H1036.29V115.76H1041.29ZM1065.05 115.76L1069.9 114.547L1068.95 110.76H1065.05V115.76ZM1069.01 131.6L1064.16 132.813L1065.11 136.6H1069.01V131.6ZM1070.55 131.6V136.6H1073.36L1074.82 134.2L1070.55 131.6ZM1077.81 122.58L1081.25 126.21L1081.25 126.205L1077.81 122.58ZM1088.37 115.98L1090.2 120.634V120.634L1088.37 115.98ZM1080.01 139.96L1082.98 143.981L1083 143.97L1083.01 143.96L1080.01 139.96ZM1072.75 151.62L1067.93 150.282L1072.75 151.62ZM1072.53 196.5L1067.65 197.598L1067.66 197.655L1067.68 197.713L1072.53 196.5ZM1079.79 209.92L1076.42 213.612L1076.46 213.648L1076.5 213.683L1079.79 209.92ZM1106.41 209.7L1109.94 213.236L1106.41 209.7ZM1113.67 196.06L1118.49 197.386L1118.49 197.371L1118.5 197.356L1113.67 196.06ZM1110.37 146.12L1105.98 148.508L1106 148.544L1106.02 148.58L1110.37 146.12ZM1102.89 113.56V118.56C1114.21 118.56 1123.07 123.012 1129.9 132.171L1133.91 129.18L1137.92 126.189C1129.21 114.522 1117.39 108.56 1102.89 108.56V113.56ZM1133.91 129.18L1129.95 132.234C1136.91 141.251 1140.79 155.287 1140.79 175.16H1145.79H1150.79C1150.79 154.26 1146.75 137.643 1137.87 126.126L1133.91 129.18ZM1145.79 175.16H1140.79C1140.79 188.233 1139.01 198.932 1135.64 207.416L1140.29 209.26L1144.94 211.104C1148.9 201.108 1150.79 189.073 1150.79 175.16H1145.79ZM1140.29 209.26L1135.64 207.416C1132.25 215.964 1127.64 222.066 1121.99 226.085L1124.89 230.16L1127.79 234.235C1135.34 228.867 1141 221.036 1144.94 211.104L1140.29 209.26ZM1124.89 230.16L1121.99 226.085C1116.3 230.135 1109.7 232.2 1102.01 232.2V237.2V242.2C1111.63 242.2 1120.28 239.572 1127.79 234.235L1124.89 230.16ZM1102.01 237.2V232.2C1097.02 232.2 1092.84 231.525 1089.39 230.291L1087.71 235L1086.03 239.709C1090.79 241.409 1096.14 242.2 1102.01 242.2V237.2ZM1087.71 235L1089.6 230.37C1086.04 228.92 1083.13 227.193 1080.81 225.235L1077.59 229.06L1074.37 232.885C1077.62 235.621 1081.46 237.853 1085.82 239.63L1087.71 235ZM1077.59 229.06L1080.92 225.334C1078.4 223.08 1076.33 220.738 1074.68 218.317L1070.55 221.14L1066.42 223.963C1068.58 227.115 1071.2 230.053 1074.26 232.786L1077.59 229.06ZM1070.55 221.14V216.14H1069.01V221.14V226.14H1070.55V221.14ZM1069.01 221.14L1064.08 221.962C1064.49 224.445 1064.84 227.318 1065.13 230.593L1070.11 230.16L1075.09 229.727C1074.79 226.256 1074.41 223.115 1073.94 220.318L1069.01 221.14ZM1070.11 230.16L1065.13 230.613C1065.41 233.704 1065.55 236.632 1065.55 239.4H1070.55H1075.55C1075.55 236.301 1075.39 233.069 1075.09 229.707L1070.11 230.16ZM1070.55 239.4H1065.55V287.8H1070.55H1075.55V239.4H1070.55ZM1070.55 287.8V282.8H1041.29V287.8V292.8H1070.55V287.8ZM1041.29 287.8H1046.29V115.76H1041.29H1036.29V287.8H1041.29ZM1041.29 115.76V120.76H1065.05V115.76V110.76H1041.29V115.76ZM1065.05 115.76L1060.2 116.973L1064.16 132.813L1069.01 131.6L1073.86 130.387L1069.9 114.547L1065.05 115.76ZM1069.01 131.6V136.6H1070.55V131.6V126.6H1069.01V131.6ZM1070.55 131.6L1074.82 134.2C1076.65 131.194 1078.79 128.536 1081.25 126.21L1077.81 122.58L1074.37 118.95C1071.25 121.904 1068.56 125.259 1066.28 129L1070.55 131.6ZM1077.81 122.58L1081.25 126.205C1083.68 123.901 1086.64 122.033 1090.2 120.634L1088.37 115.98L1086.54 111.326C1081.89 113.154 1077.81 115.686 1074.37 118.955L1077.81 122.58ZM1088.37 115.98L1090.2 120.634C1093.59 119.301 1097.78 118.56 1102.89 118.56V113.56V108.56C1096.85 108.56 1091.36 109.433 1086.54 111.326L1088.37 115.98ZM1093.65 136V131C1087.29 131 1081.6 132.515 1077.01 135.96L1080.01 139.96L1083.01 143.96C1085.46 142.125 1088.87 141 1093.65 141V136ZM1080.01 139.96L1077.04 135.939C1072.52 139.274 1069.6 144.258 1067.93 150.282L1072.75 151.62L1077.57 152.958C1078.83 148.422 1080.75 145.632 1082.98 143.981L1080.01 139.96ZM1072.75 151.62L1067.93 150.282C1066.3 156.144 1065.55 163.23 1065.55 171.42H1070.55H1075.55C1075.55 163.77 1076.26 157.656 1077.57 152.958L1072.75 151.62ZM1070.55 171.42H1065.55V174.94H1070.55H1075.55V171.42H1070.55ZM1070.55 174.94H1065.55C1065.55 183.677 1066.22 191.257 1067.65 197.598L1072.53 196.5L1077.41 195.402C1076.19 190.01 1075.55 183.216 1075.55 174.94H1070.55ZM1072.53 196.5L1067.68 197.713C1069.31 204.23 1072.12 209.686 1076.42 213.612L1079.79 209.92L1083.16 206.228C1080.71 203.994 1078.68 200.503 1077.38 195.287L1072.53 196.5ZM1079.79 209.92L1076.5 213.683C1081.16 217.767 1087.22 219.54 1094.09 219.54V214.54V209.54C1088.93 209.54 1085.45 208.233 1083.08 206.157L1079.79 209.92ZM1094.09 214.54V219.54C1100.27 219.54 1105.69 217.492 1109.94 213.236L1106.41 209.7L1102.87 206.164C1100.68 208.362 1097.89 209.54 1094.09 209.54V214.54ZM1106.41 209.7L1109.94 213.236C1113.96 209.225 1116.72 203.819 1118.49 197.386L1113.67 196.06L1108.85 194.734C1107.39 200.034 1105.32 203.721 1102.87 206.164L1106.41 209.7ZM1113.67 196.06L1118.5 197.356C1120.25 190.81 1121.09 183.24 1121.09 174.72H1116.09H1111.09C1111.09 182.626 1110.31 189.283 1108.84 194.764L1113.67 196.06ZM1116.09 174.72H1121.09C1121.09 161.997 1119.14 151.475 1114.72 143.66L1110.37 146.12L1106.02 148.58C1109.23 154.258 1111.09 162.803 1111.09 174.72H1116.09ZM1110.37 146.12L1114.76 143.732C1112.58 139.721 1109.7 136.474 1106.03 134.253C1102.35 132.027 1098.16 131 1093.65 131V136V141C1096.61 141 1098.95 141.66 1100.85 142.807C1102.75 143.959 1104.49 145.773 1105.98 148.508L1110.37 146.12Z" fill="#124261" mask="url(#path-1-outside-1_28_52)"/>
<mask id="path-3-outside-2_28_52" maskUnits="userSpaceOnUse" x="196.384" y="40.4207" width="214.335" height="264.54" fill="black">
<rect fill="white" x="196.384" y="40.4207" width="214.335" height="264.54"/>
<path d="M321.004 242.036C315.743 243.446 309.751 244.33 303.029 244.689C296.428 245.015 289.77 244.636 283.053 243.551C276.426 242.31 270.414 240.184 265.017 237.171L272.262 215.756C279.356 219.232 286.596 221.292 293.981 221.936C301.366 222.58 308.423 222 315.153 220.197C324.451 217.705 330.865 214.479 334.393 210.517C338.043 206.523 339.148 201.834 337.705 196.451C336.787 193.025 334.732 190.494 331.54 188.858C328.347 187.221 324.32 186.137 319.456 185.604C314.682 184.917 309.512 184.466 303.948 184.252C298.35 183.916 292.703 183.397 287.007 182.694C281.278 181.868 275.818 180.577 270.627 178.821C265.525 176.91 261.115 174.157 257.399 170.563C253.682 166.97 250.987 162.053 249.315 155.813C247.152 147.738 247.241 140.239 249.582 133.317C251.924 126.395 256.278 120.377 262.644 115.261C269.133 110.113 277.149 106.261 286.692 103.704C294.033 101.737 300.808 100.839 307.018 101.011C313.194 101.061 319.062 101.915 324.621 103.572C330.301 105.198 335.73 107.349 340.906 110.027L331.653 129.817C327.318 127.831 322.991 126.367 318.674 125.426C314.446 124.33 310.227 123.755 306.017 123.703C301.929 123.619 297.744 124.15 293.462 125.297C286.732 127.1 281.571 129.86 277.977 133.577C274.383 137.294 273.291 141.783 274.701 147.044C275.586 150.347 277.608 152.756 280.768 154.27C283.894 155.661 287.828 156.64 292.57 157.205C297.433 157.738 302.664 158.172 308.262 158.508C313.826 158.722 319.457 159.18 325.153 159.883C330.849 160.586 336.248 161.894 341.35 163.805C346.541 165.561 351.012 168.297 354.761 172.014C358.511 175.73 361.238 180.769 362.943 187.131C365.107 195.206 364.928 202.86 362.407 210.092C360.009 217.291 355.354 223.653 348.441 229.177C341.529 234.701 332.383 238.988 321.004 242.036ZM280.61 114.775L272.103 83.0249L290.088 78.2057L298.596 109.956L280.61 114.775ZM321.279 266.551L312.23 232.782L330.216 227.963L339.264 261.732L321.279 266.551Z"/>
</mask>
<path d="M321.004 242.036C315.743 243.446 309.751 244.33 303.029 244.689C296.428 245.015 289.77 244.636 283.053 243.551C276.426 242.31 270.414 240.184 265.017 237.171L272.262 215.756C279.356 219.232 286.596 221.292 293.981 221.936C301.366 222.58 308.423 222 315.153 220.197C324.451 217.705 330.865 214.479 334.393 210.517C338.043 206.523 339.148 201.834 337.705 196.451C336.787 193.025 334.732 190.494 331.54 188.858C328.347 187.221 324.32 186.137 319.456 185.604C314.682 184.917 309.512 184.466 303.948 184.252C298.35 183.916 292.703 183.397 287.007 182.694C281.278 181.868 275.818 180.577 270.627 178.821C265.525 176.91 261.115 174.157 257.399 170.563C253.682 166.97 250.987 162.053 249.315 155.813C247.152 147.738 247.241 140.239 249.582 133.317C251.924 126.395 256.278 120.377 262.644 115.261C269.133 110.113 277.149 106.261 286.692 103.704C294.033 101.737 300.808 100.839 307.018 101.011C313.194 101.061 319.062 101.915 324.621 103.572C330.301 105.198 335.73 107.349 340.906 110.027L331.653 129.817C327.318 127.831 322.991 126.367 318.674 125.426C314.446 124.33 310.227 123.755 306.017 123.703C301.929 123.619 297.744 124.15 293.462 125.297C286.732 127.1 281.571 129.86 277.977 133.577C274.383 137.294 273.291 141.783 274.701 147.044C275.586 150.347 277.608 152.756 280.768 154.27C283.894 155.661 287.828 156.64 292.57 157.205C297.433 157.738 302.664 158.172 308.262 158.508C313.826 158.722 319.457 159.18 325.153 159.883C330.849 160.586 336.248 161.894 341.35 163.805C346.541 165.561 351.012 168.297 354.761 172.014C358.511 175.73 361.238 180.769 362.943 187.131C365.107 195.206 364.928 202.86 362.407 210.092C360.009 217.291 355.354 223.653 348.441 229.177C341.529 234.701 332.383 238.988 321.004 242.036ZM280.61 114.775L272.103 83.0249L290.088 78.2057L298.596 109.956L280.61 114.775ZM321.279 266.551L312.23 232.782L330.216 227.963L339.264 261.732L321.279 266.551Z" fill="#E48928"/>
<path d="M303.029 244.689L304.015 264.665L304.055 264.663L304.095 264.661L303.029 244.689ZM283.053 243.551L279.373 263.209L279.618 263.255L279.863 263.294L283.053 243.551ZM265.017 237.171L246.072 230.762L240.74 246.525L255.27 254.635L265.017 237.171ZM272.262 215.756L281.06 197.796L260.613 187.779L253.316 209.348L272.262 215.756ZM293.981 221.936L295.718 202.011L293.981 221.936ZM334.393 210.517L319.63 197.025L319.543 197.119L319.458 197.215L334.393 210.517ZM331.54 188.858L322.417 206.656L322.417 206.656L331.54 188.858ZM319.456 185.604L316.604 205.4L316.94 205.448L317.278 205.485L319.456 185.604ZM303.948 184.252L302.749 204.216L302.965 204.229L303.18 204.237L303.948 184.252ZM287.007 182.694L284.155 202.489L284.356 202.518L284.557 202.543L287.007 182.694ZM270.627 178.821L263.61 197.55L263.912 197.663L264.218 197.766L270.627 178.821ZM262.644 115.261L250.213 99.5938L250.165 99.6321L250.117 99.6708L262.644 115.261ZM307.018 101.011L306.464 121.003L306.66 121.009L306.857 121.01L307.018 101.011ZM324.621 103.572L318.904 122.738L319.012 122.77L319.12 122.801L324.621 103.572ZM340.906 110.027L359.023 118.499L367.162 101.094L350.097 92.2643L340.906 110.027ZM331.653 129.817L323.324 148L341.365 156.264L349.77 138.288L331.653 129.817ZM318.674 125.426L313.653 144.786L314.032 144.884L314.414 144.967L318.674 125.426ZM306.017 123.703L305.602 143.699L305.686 143.701L305.77 143.702L306.017 123.703ZM277.977 133.577L292.355 147.479L292.355 147.479L277.977 133.577ZM280.768 154.27L272.126 172.306L272.379 172.428L272.636 172.542L280.768 154.27ZM292.57 157.205L290.201 177.065L290.297 177.076L290.392 177.086L292.57 157.205ZM308.262 158.508L307.063 178.472L307.279 178.485L307.494 178.494L308.262 158.508ZM325.153 159.883L327.603 140.034L327.603 140.034L325.153 159.883ZM341.35 163.805L334.333 182.534L334.635 182.647L334.941 182.75L341.35 163.805ZM354.761 172.014L368.84 157.808L368.84 157.808L354.761 172.014ZM362.407 210.092L343.522 203.51L343.476 203.64L343.433 203.771L362.407 210.092ZM280.61 114.775L261.292 119.951L266.468 139.27L285.787 134.093L280.61 114.775ZM272.103 83.0249L266.927 63.7064L247.608 68.8827L252.784 88.2013L272.103 83.0249ZM290.088 78.2057L309.407 73.0293L304.231 53.7108L284.912 58.8871L290.088 78.2057ZM298.596 109.956L303.772 129.274L323.091 124.098L317.914 104.779L298.596 109.956ZM321.279 266.551L301.96 271.727L307.136 291.046L326.455 285.869L321.279 266.551ZM312.23 232.782L307.054 213.464L287.735 218.64L292.912 237.958L312.23 232.782ZM330.216 227.963L349.534 222.786L344.358 203.468L325.039 208.644L330.216 227.963ZM339.264 261.732L344.44 281.05L363.759 275.874L358.583 256.555L339.264 261.732ZM321.004 242.036L315.828 222.718C312.181 223.695 307.607 224.416 301.962 224.718L303.029 244.689L304.095 264.661C311.895 264.244 319.305 263.197 326.181 261.355L321.004 242.036ZM303.029 244.689L302.042 224.714C296.878 224.969 291.62 224.675 286.244 223.807L283.053 243.551L279.863 263.294C287.919 264.596 295.978 265.062 304.015 264.665L303.029 244.689ZM283.053 243.551L286.733 223.892C282.042 223.014 278.108 221.573 274.765 219.708L265.017 237.171L255.27 254.635C262.721 258.794 270.811 261.606 279.373 263.209L283.053 243.551ZM265.017 237.171L283.963 243.58L291.207 222.165L272.262 215.756L253.316 209.348L246.072 230.762L265.017 237.171ZM272.262 215.756L263.463 233.717C272.624 238.205 282.247 240.988 292.244 241.86L293.981 221.936L295.718 202.011C290.946 201.595 286.089 200.259 281.06 197.796L272.262 215.756ZM293.981 221.936L292.244 241.86C301.801 242.693 311.207 241.96 320.329 239.515L315.153 220.197L309.976 200.878C305.639 202.04 300.931 202.466 295.718 202.011L293.981 221.936ZM315.153 220.197L320.329 239.515C330.744 236.725 341.837 232.23 349.328 223.819L334.393 210.517L319.458 197.215C319.849 196.776 319.649 197.186 317.948 198.042C316.291 198.876 313.723 199.874 309.976 200.878L315.153 220.197ZM334.393 210.517L349.156 224.01C357.576 214.798 360.168 203.011 357.024 191.274L337.705 196.451L318.386 201.627C318.388 201.632 318.175 200.765 318.491 199.421C318.814 198.049 319.442 197.231 319.63 197.025L334.393 210.517ZM337.705 196.451L357.024 191.274C354.624 182.319 348.818 175.24 340.662 171.059L331.54 188.858L322.417 206.656C321.791 206.335 320.841 205.688 319.949 204.59C319.053 203.487 318.591 202.389 318.386 201.627L337.705 196.451ZM331.54 188.858L340.662 171.059C334.669 167.988 328.096 166.431 321.633 165.723L319.456 185.604L317.278 205.485C320.543 205.843 322.025 206.455 322.417 206.656L331.54 188.858ZM319.456 185.604L322.308 165.809C316.747 165.008 310.874 164.503 304.715 164.267L303.948 184.252L303.18 204.237C308.151 204.428 312.617 204.825 316.604 205.4L319.456 185.604ZM303.948 184.252L305.146 164.288C299.976 163.978 294.747 163.497 289.457 162.844L287.007 182.694L284.557 202.543C290.659 203.296 296.724 203.855 302.749 204.216L303.948 184.252ZM287.007 182.694L289.859 162.898C285.272 162.237 281.007 161.219 277.035 159.876L270.627 178.821L264.218 197.766C270.629 199.935 277.284 201.499 284.155 202.489L287.007 182.694ZM270.627 178.821L277.643 160.092C274.97 159.091 272.94 157.77 271.301 156.185L257.399 170.563L243.496 184.941C249.291 190.544 256.079 194.729 263.61 197.55L270.627 178.821ZM257.399 170.563L271.301 156.185C270.767 155.669 269.6 154.241 268.634 150.637L249.315 155.813L229.997 160.989C232.375 169.864 236.597 178.27 243.496 184.941L257.399 170.563ZM249.315 155.813L268.634 150.637C267.341 145.81 267.627 142.389 268.528 139.726L249.582 133.317L230.637 126.908C226.854 138.089 226.963 149.666 229.997 160.989L249.315 155.813ZM249.582 133.317L268.528 139.726C269.508 136.828 271.415 133.871 275.171 130.852L262.644 115.261L250.117 99.6708C241.141 106.883 234.34 115.962 230.637 126.908L249.582 133.317ZM262.644 115.261L275.075 130.929C279.049 127.776 284.467 125.005 291.868 123.022L286.692 103.704L281.516 84.385C269.831 87.516 259.217 92.4504 250.213 99.5938L262.644 115.261ZM286.692 103.704L291.868 123.022C297.742 121.448 302.562 120.895 306.464 121.003L307.018 101.011L307.572 81.0188C299.055 80.7828 290.324 82.0249 281.516 84.385L286.692 103.704ZM307.018 101.011L306.857 121.01C311.274 121.046 315.262 121.652 318.904 122.738L324.621 103.572L330.337 84.4068C322.862 82.1773 315.115 81.0756 307.179 81.0118L307.018 101.011ZM324.621 103.572L319.12 122.801C323.543 124.066 327.734 125.73 331.715 127.791L340.906 110.027L350.097 92.2643C343.726 88.9679 337.06 86.3287 330.121 84.3437L324.621 103.572ZM340.906 110.027L322.789 101.556L313.535 121.345L331.653 129.817L349.77 138.288L359.023 118.499L340.906 110.027ZM331.653 129.817L339.982 111.633C334.445 109.097 328.758 107.155 322.934 105.885L318.674 125.426L314.414 144.967C317.225 145.58 320.19 146.565 323.324 148L331.653 129.817ZM318.674 125.426L323.695 106.067C317.966 104.581 312.145 103.778 306.264 103.705L306.017 123.703L305.77 143.702C308.31 143.733 310.927 144.079 313.653 144.786L318.674 125.426ZM306.017 123.703L306.432 103.708C300.306 103.581 294.237 104.384 288.285 105.979L293.462 125.297L298.638 144.616C301.25 143.916 303.552 143.657 305.602 143.699L306.017 123.703ZM293.462 125.297L288.285 105.979C279.231 108.405 270.442 112.597 263.599 119.675L277.977 133.577L292.355 147.479C292.699 147.123 294.234 145.796 298.638 144.616L293.462 125.297ZM277.977 133.577L263.599 119.675C254.812 128.763 252.273 140.616 255.382 152.22L274.701 147.044L294.019 141.868C294.018 141.861 294.086 142.116 294.102 142.592C294.118 143.082 294.074 143.726 293.896 144.459C293.505 146.066 292.727 147.094 292.355 147.479L277.977 133.577ZM274.701 147.044L255.382 152.22C257.82 161.319 263.848 168.34 272.126 172.306L280.768 154.27L289.41 136.233C290.104 136.566 291.18 137.254 292.198 138.468C293.226 139.692 293.773 140.947 294.019 141.868L274.701 147.044ZM280.768 154.27L272.636 172.542C278.157 174.999 284.193 176.348 290.201 177.065L292.57 157.205L294.938 137.346C291.464 136.932 289.632 136.324 288.9 135.998L280.768 154.27ZM292.57 157.205L290.392 177.086C295.624 177.66 301.185 178.12 307.063 178.472L308.262 158.508L309.46 138.544C304.143 138.225 299.242 137.817 294.747 137.324L292.57 157.205ZM308.262 158.508L307.494 178.494C312.48 178.685 317.549 179.097 322.703 179.733L325.153 159.883L327.603 140.034C321.365 139.264 315.173 138.759 309.029 138.523L308.262 158.508ZM325.153 159.883L322.703 179.733C326.921 180.253 330.781 181.203 334.333 182.534L341.35 163.805L348.366 145.076C341.715 142.584 334.777 140.919 327.603 140.034L325.153 159.883ZM341.35 163.805L334.941 182.75C337.362 183.569 339.179 184.728 340.683 186.219L354.761 172.014L368.84 157.808C362.845 151.866 355.721 147.553 347.759 144.86L341.35 163.805ZM354.761 172.014L340.683 186.219C341.365 186.895 342.611 188.527 343.624 192.307L362.943 187.131L382.261 181.955C379.865 173.01 375.657 164.564 368.84 157.808L354.761 172.014ZM362.943 187.131L343.624 192.307C344.849 196.879 344.601 200.412 343.522 203.51L362.407 210.092L381.293 216.675C385.255 205.308 385.364 193.533 382.261 181.955L362.943 187.131ZM362.407 210.092L343.433 203.771C342.446 206.733 340.364 210.03 335.955 213.553L348.441 229.177L360.927 244.801C370.343 237.276 377.572 227.85 381.382 216.413L362.407 210.092ZM348.441 229.177L335.955 213.553C331.786 216.885 325.379 220.159 315.828 222.718L321.004 242.036L326.181 261.355C339.387 257.816 351.271 252.517 360.927 244.801L348.441 229.177ZM280.61 114.775L299.929 109.598L291.421 77.8485L272.103 83.0249L252.784 88.2013L261.292 119.951L280.61 114.775ZM272.103 83.0249L277.279 102.343L295.265 97.5242L290.088 78.2057L284.912 58.8871L266.927 63.7064L272.103 83.0249ZM290.088 78.2057L270.77 83.382L279.277 115.132L298.596 109.956L317.914 104.779L309.407 73.0293L290.088 78.2057ZM298.596 109.956L293.419 90.6371L275.434 95.4563L280.61 114.775L285.787 134.093L303.772 129.274L298.596 109.956ZM321.279 266.551L340.597 261.374L331.549 227.606L312.23 232.782L292.912 237.958L301.96 271.727L321.279 266.551ZM312.23 232.782L317.407 252.101L335.392 247.281L330.216 227.963L325.039 208.644L307.054 213.464L312.23 232.782ZM330.216 227.963L310.897 233.139L319.946 266.908L339.264 261.732L358.583 256.555L349.534 222.786L330.216 227.963ZM339.264 261.732L334.088 242.413L316.102 247.232L321.279 266.551L326.455 285.869L344.44 281.05L339.264 261.732Z" fill="#F3F1EF" mask="url(#path-3-outside-2_28_52)"/>
<mask id="path-5-outside-3_28_52" maskUnits="userSpaceOnUse" x="217.394" y="58.8612" width="171.349" height="227.918" fill="black">
<rect fill="white" x="217.394" y="58.8612" width="171.349" height="227.918"/>
<path d="M321.004 242.036C315.743 243.446 309.751 244.33 303.029 244.689C296.428 245.015 289.77 244.636 283.053 243.551C276.426 242.31 270.414 240.184 265.017 237.171L272.262 215.756C279.356 219.232 286.596 221.292 293.981 221.936C301.366 222.58 308.423 222 315.153 220.197C324.451 217.705 330.865 214.479 334.393 210.517C338.043 206.523 339.148 201.834 337.705 196.451C336.787 193.025 334.732 190.494 331.54 188.858C328.347 187.221 324.32 186.137 319.456 185.604C314.682 184.917 309.512 184.466 303.948 184.252C298.35 183.916 292.703 183.397 287.007 182.694C281.278 181.868 275.818 180.577 270.627 178.821C265.525 176.91 261.115 174.157 257.399 170.563C253.682 166.97 250.987 162.053 249.315 155.813C247.152 147.738 247.241 140.239 249.582 133.317C251.924 126.395 256.278 120.377 262.644 115.261C269.133 110.113 277.149 106.261 286.692 103.704C294.033 101.737 300.808 100.839 307.018 101.011C313.194 101.061 319.062 101.915 324.621 103.572C330.301 105.198 335.73 107.349 340.906 110.027L331.653 129.817C327.318 127.831 322.991 126.367 318.674 125.426C314.446 124.33 310.227 123.755 306.017 123.703C301.929 123.619 297.744 124.15 293.462 125.297C286.732 127.1 281.571 129.86 277.977 133.577C274.383 137.294 273.291 141.783 274.701 147.044C275.586 150.347 277.608 152.756 280.768 154.27C283.894 155.661 287.828 156.64 292.57 157.205C297.433 157.738 302.664 158.172 308.262 158.508C313.826 158.722 319.457 159.18 325.153 159.883C330.849 160.586 336.248 161.894 341.35 163.805C346.541 165.561 351.012 168.297 354.761 172.014C358.511 175.73 361.238 180.769 362.943 187.131C365.107 195.206 364.928 202.86 362.407 210.092C360.009 217.291 355.354 223.653 348.441 229.177C341.529 234.701 332.383 238.988 321.004 242.036ZM280.61 114.775L272.103 83.0249L290.088 78.2057L298.596 109.956L280.61 114.775ZM321.279 266.551L312.23 232.782L330.216 227.963L339.264 261.732L321.279 266.551Z"/>
</mask>
<path d="M321.004 242.036C315.743 243.446 309.751 244.33 303.029 244.689C296.428 245.015 289.77 244.636 283.053 243.551C276.426 242.31 270.414 240.184 265.017 237.171L272.262 215.756C279.356 219.232 286.596 221.292 293.981 221.936C301.366 222.58 308.423 222 315.153 220.197C324.451 217.705 330.865 214.479 334.393 210.517C338.043 206.523 339.148 201.834 337.705 196.451C336.787 193.025 334.732 190.494 331.54 188.858C328.347 187.221 324.32 186.137 319.456 185.604C314.682 184.917 309.512 184.466 303.948 184.252C298.35 183.916 292.703 183.397 287.007 182.694C281.278 181.868 275.818 180.577 270.627 178.821C265.525 176.91 261.115 174.157 257.399 170.563C253.682 166.97 250.987 162.053 249.315 155.813C247.152 147.738 247.241 140.239 249.582 133.317C251.924 126.395 256.278 120.377 262.644 115.261C269.133 110.113 277.149 106.261 286.692 103.704C294.033 101.737 300.808 100.839 307.018 101.011C313.194 101.061 319.062 101.915 324.621 103.572C330.301 105.198 335.73 107.349 340.906 110.027L331.653 129.817C327.318 127.831 322.991 126.367 318.674 125.426C314.446 124.33 310.227 123.755 306.017 123.703C301.929 123.619 297.744 124.15 293.462 125.297C286.732 127.1 281.571 129.86 277.977 133.577C274.383 137.294 273.291 141.783 274.701 147.044C275.586 150.347 277.608 152.756 280.768 154.27C283.894 155.661 287.828 156.64 292.57 157.205C297.433 157.738 302.664 158.172 308.262 158.508C313.826 158.722 319.457 159.18 325.153 159.883C330.849 160.586 336.248 161.894 341.35 163.805C346.541 165.561 351.012 168.297 354.761 172.014C358.511 175.73 361.238 180.769 362.943 187.131C365.107 195.206 364.928 202.86 362.407 210.092C360.009 217.291 355.354 223.653 348.441 229.177C341.529 234.701 332.383 238.988 321.004 242.036ZM280.61 114.775L272.103 83.0249L290.088 78.2057L298.596 109.956L280.61 114.775ZM321.279 266.551L312.23 232.782L330.216 227.963L339.264 261.732L321.279 266.551Z" fill="#E48928"/>
<path d="M303.029 244.689L303.325 250.682L303.336 250.681L303.348 250.681L303.029 244.689ZM283.053 243.551L281.949 249.448L282.022 249.462L282.096 249.474L283.053 243.551ZM265.017 237.171L259.334 235.248L257.734 239.977L262.093 242.41L265.017 237.171ZM272.262 215.756L274.901 210.368L268.767 207.363L266.578 213.834L272.262 215.756ZM293.981 221.936L294.502 215.958L293.981 221.936ZM334.393 210.517L329.964 206.469L329.938 206.498L329.912 206.527L334.393 210.517ZM331.54 188.858L328.803 194.197L328.803 194.197L331.54 188.858ZM319.456 185.604L318.6 191.543L318.701 191.558L318.803 191.569L319.456 185.604ZM303.948 184.252L303.588 190.241L303.653 190.245L303.717 190.248L303.948 184.252ZM287.007 182.694L286.151 188.632L286.212 188.641L286.272 188.648L287.007 182.694ZM270.627 178.821L268.522 184.44L268.612 184.474L268.704 184.505L270.627 178.821ZM262.644 115.261L258.915 110.561L258.9 110.573L258.886 110.584L262.644 115.261ZM307.018 101.011L306.852 107.009L306.911 107.01L306.969 107.011L307.018 101.011ZM324.621 103.572L322.906 109.322L322.938 109.332L322.97 109.341L324.621 103.572ZM340.906 110.027L346.341 112.569L348.783 107.347L343.663 104.698L340.906 110.027ZM331.653 129.817L329.154 135.272L334.566 137.751L337.088 132.358L331.653 129.817ZM318.674 125.426L317.168 131.234L317.281 131.263L317.396 131.288L318.674 125.426ZM306.017 123.703L305.892 129.702L305.918 129.703L305.943 129.703L306.017 123.703ZM277.977 133.577L282.29 137.748L282.29 137.748L277.977 133.577ZM280.768 154.27L278.175 159.681L278.251 159.717L278.328 159.752L280.768 154.27ZM292.57 157.205L291.859 163.163L291.888 163.167L291.916 163.17L292.57 157.205ZM308.262 158.508L307.902 164.498L307.967 164.501L308.031 164.504L308.262 158.508ZM325.153 159.883L325.888 153.929L325.888 153.929L325.153 159.883ZM341.35 163.805L339.245 169.424L339.336 169.458L339.427 169.489L341.35 163.805ZM354.761 172.014L358.985 167.752L358.985 167.752L354.761 172.014ZM362.407 210.092L356.742 208.117L356.728 208.156L356.715 208.196L362.407 210.092ZM280.61 114.775L274.815 116.328L276.368 122.123L282.163 120.57L280.61 114.775ZM272.103 83.0249L270.55 77.2293L264.754 78.7822L266.307 84.5778L272.103 83.0249ZM290.088 78.2057L295.884 76.6527L294.331 70.8572L288.536 72.4101L290.088 78.2057ZM298.596 109.956L300.149 115.751L305.944 114.198L304.391 108.403L298.596 109.956ZM321.279 266.551L315.483 268.104L317.036 273.899L322.831 272.346L321.279 266.551ZM312.23 232.782L310.677 226.986L304.882 228.539L306.435 234.335L312.23 232.782ZM330.216 227.963L336.011 226.41L334.458 220.614L328.663 222.167L330.216 227.963ZM339.264 261.732L340.817 267.527L346.613 265.974L345.06 260.179L339.264 261.732ZM321.004 242.036L319.451 236.241C314.675 237.521 309.108 238.356 302.709 238.698L303.029 244.689L303.348 250.681C310.395 250.305 316.812 249.371 322.557 247.832L321.004 242.036ZM303.029 244.689L302.732 238.697C296.563 239.001 290.325 238.648 284.01 237.627L283.053 243.551L282.096 249.474C289.214 250.624 296.293 251.029 303.325 250.682L303.029 244.689ZM283.053 243.551L284.157 237.653C278.111 236.521 272.722 234.601 267.942 231.932L265.017 237.171L262.093 242.41C268.106 245.767 274.742 248.099 281.949 249.448L283.053 243.551ZM265.017 237.171L270.701 239.094L277.945 217.679L272.262 215.756L266.578 213.834L259.334 235.248L265.017 237.171ZM272.262 215.756L269.622 221.145C277.337 224.924 285.291 227.201 293.46 227.913L293.981 221.936L294.502 215.958C287.901 215.383 281.376 213.54 274.901 210.368L272.262 215.756ZM293.981 221.936L293.46 227.913C301.497 228.614 309.258 227.988 316.705 225.992L315.153 220.197L313.6 214.401C307.588 216.012 301.236 216.545 294.502 215.958L293.981 221.936ZM315.153 220.197L316.705 225.992C326.339 223.411 334.156 219.804 338.873 214.508L334.393 210.517L329.912 206.527C327.573 209.154 322.563 211.999 313.6 214.401L315.153 220.197ZM334.393 210.517L338.822 214.565C343.903 209.005 345.454 202.187 343.501 194.898L337.705 196.451L331.909 198.004C332.841 201.481 332.184 204.041 329.964 206.469L334.393 210.517ZM337.705 196.451L343.501 194.898C342.138 189.813 338.958 185.918 334.276 183.518L331.54 188.858L328.803 194.197C330.506 195.07 331.436 196.237 331.909 198.004L337.705 196.451ZM331.54 188.858L334.276 183.518C330.244 181.451 325.453 180.225 320.109 179.64L319.456 185.604L318.803 191.569C323.187 192.049 326.451 192.992 328.803 194.197L331.54 188.858ZM319.456 185.604L320.312 179.666C315.301 178.944 309.921 178.477 304.178 178.257L303.948 184.252L303.717 190.248C309.104 190.455 314.062 190.889 318.6 191.543L319.456 185.604ZM303.948 184.252L304.307 178.263C298.838 177.935 293.316 177.427 287.742 176.739L287.007 182.694L286.272 188.648C292.09 189.366 297.862 189.898 303.588 190.241L303.948 184.252ZM287.007 182.694L287.863 176.755C282.476 175.979 277.375 174.77 272.549 173.138L270.627 178.821L268.704 184.505C274.261 186.385 280.08 187.758 286.151 188.632L287.007 182.694ZM270.627 178.821L272.731 173.203C268.358 171.564 264.663 169.241 261.569 166.25L257.399 170.563L253.228 174.877C257.568 179.073 262.691 182.256 268.522 184.44L270.627 178.821ZM257.399 170.563L261.569 166.25C258.807 163.58 256.571 159.709 255.111 154.26L249.315 155.813L243.52 157.366C245.404 164.396 248.556 170.36 253.228 174.877L257.399 170.563ZM249.315 155.813L255.111 154.26C253.208 147.159 253.356 140.884 255.266 135.24L249.582 133.317L243.899 131.395C241.125 139.594 241.095 148.316 243.52 157.366L249.315 155.813ZM249.582 133.317L255.266 135.24C257.199 129.525 260.819 124.425 266.402 119.939L262.644 115.261L258.886 110.584C251.737 116.329 246.649 123.266 243.899 131.395L249.582 133.317ZM262.644 115.261L266.373 119.962C272.107 115.412 279.344 111.884 288.245 109.499L286.692 103.704L285.139 97.908C274.953 100.637 266.158 104.814 258.915 110.561L262.644 115.261ZM286.692 103.704L288.245 109.499C295.146 107.65 301.334 106.856 306.852 107.009L307.018 101.011L307.184 95.0134C300.282 94.8222 292.92 95.823 285.139 97.908L286.692 103.704ZM307.018 101.011L306.969 107.011C312.618 107.056 317.922 107.836 322.906 109.322L324.621 103.572L326.335 97.8228C320.202 95.9934 313.771 95.0653 307.066 95.0113L307.018 101.011ZM324.621 103.572L322.97 109.341C328.274 110.858 333.331 112.864 338.149 115.356L340.906 110.027L343.663 104.698C338.129 101.835 332.329 99.5369 326.271 97.8038L324.621 103.572ZM340.906 110.027L335.471 107.486L326.217 127.275L331.653 129.817L337.088 132.358L346.341 112.569L340.906 110.027ZM331.653 129.817L334.151 124.362C329.456 122.211 324.722 120.604 319.952 119.564L318.674 125.426L317.396 131.288C321.261 132.131 325.179 133.451 329.154 135.272L331.653 129.817ZM318.674 125.426L320.18 119.618C315.502 118.405 310.802 117.762 306.091 117.704L306.017 123.703L305.943 129.703C309.652 129.749 313.39 130.254 317.168 131.234L318.674 125.426ZM306.017 123.703L306.141 117.705C301.442 117.607 296.692 118.22 291.909 119.502L293.462 125.297L295.015 131.093C298.796 130.08 302.416 129.63 305.892 129.702L306.017 123.703ZM293.462 125.297L291.909 119.502C284.482 121.492 278.232 124.681 273.664 129.406L277.977 133.577L282.29 137.748C284.909 135.039 288.983 132.709 295.015 131.093L293.462 125.297ZM277.977 133.577L273.664 129.406C268.512 134.735 266.986 141.433 268.905 148.597L274.701 147.044L280.496 145.491C279.597 142.133 280.255 139.853 282.29 137.748L277.977 133.577ZM274.701 147.044L268.905 148.597C270.256 153.639 273.48 157.431 278.175 159.681L280.768 154.27L283.36 148.859C281.736 148.081 280.916 147.056 280.496 145.491L274.701 147.044ZM280.768 154.27L278.328 159.752C282.173 161.463 286.738 162.552 291.859 163.163L292.57 157.205L293.28 151.248C288.919 150.727 285.616 149.86 283.207 148.788L280.768 154.27ZM292.57 157.205L291.916 163.17C296.891 163.714 302.22 164.157 307.902 164.498L308.262 158.508L308.621 152.519C303.108 152.188 297.976 151.762 293.223 151.241L292.57 157.205ZM308.262 158.508L308.031 164.504C313.422 164.711 318.885 165.155 324.418 165.838L325.153 159.883L325.888 153.929C320.029 153.205 314.23 152.733 308.492 152.513L308.262 158.508ZM325.153 159.883L324.418 165.838C329.671 166.487 334.608 167.686 339.245 169.424L341.35 163.805L343.455 158.186C337.888 156.101 332.027 154.686 325.888 153.929L325.153 159.883ZM341.35 163.805L339.427 169.489C343.787 170.964 347.462 173.227 350.538 176.275L354.761 172.014L358.985 167.752C354.562 163.368 349.295 160.159 343.273 158.121L341.35 163.805ZM354.761 172.014L350.538 176.275C353.367 179.079 355.65 183.096 357.147 188.684L362.943 187.131L368.738 185.578C366.826 178.441 363.655 172.38 358.985 167.752L354.761 172.014ZM362.943 187.131L357.147 188.684C359.029 195.708 358.83 202.126 356.742 208.117L362.407 210.092L368.073 212.067C371.026 203.594 371.184 194.704 368.738 185.578L362.943 187.131ZM362.407 210.092L356.715 208.196C354.74 214.124 350.857 219.566 344.695 224.49L348.441 229.177L352.187 233.864C359.851 227.74 365.278 220.459 368.1 211.988L362.407 210.092ZM348.441 229.177L344.695 224.49C338.606 229.356 330.282 233.339 319.451 236.241L321.004 242.036L322.557 247.832C334.484 244.636 344.451 240.046 352.187 233.864L348.441 229.177ZM280.61 114.775L286.406 113.222L277.898 81.472L272.103 83.0249L266.307 84.5778L274.815 116.328L280.61 114.775ZM272.103 83.0249L273.656 88.8204L291.641 84.0012L290.088 78.2057L288.536 72.4101L270.55 77.2293L272.103 83.0249ZM290.088 78.2057L284.293 79.7586L292.8 111.509L298.596 109.956L304.391 108.403L295.884 76.6527L290.088 78.2057ZM298.596 109.956L297.043 104.16L279.057 108.979L280.61 114.775L282.163 120.57L300.149 115.751L298.596 109.956ZM321.279 266.551L327.074 264.998L318.026 231.229L312.23 232.782L306.435 234.335L315.483 268.104L321.279 266.551ZM312.23 232.782L313.783 238.578L331.769 233.758L330.216 227.963L328.663 222.167L310.677 226.986L312.23 232.782ZM330.216 227.963L324.42 229.516L333.469 263.285L339.264 261.732L345.06 260.179L336.011 226.41L330.216 227.963ZM339.264 261.732L337.711 255.936L319.726 260.755L321.279 266.551L322.831 272.346L340.817 267.527L339.264 261.732Z" fill="#E48928" mask="url(#path-5-outside-3_28_52)"/>
</svg>
