<svg width="321" height="324" viewBox="0 0 321 324" fill="none" xmlns="http://www.w3.org/2000/svg">
<mask id="path-1-outside-1_144_64" maskUnits="userSpaceOnUse" x="42" y="39" width="143" height="241" fill="black">
<rect fill="white" x="42" y="39" width="143" height="241"/>
<path d="M112.47 246C105.877 246 98.5933 245.157 90.62 243.47C82.8 241.783 75.1333 239.253 67.62 235.88C60.26 232.353 53.8967 227.983 48.53 222.77L63.71 200C70.9167 206.287 78.7367 210.963 87.17 214.03C95.6033 217.097 104.037 218.63 112.47 218.63C124.123 218.63 132.633 216.867 138 213.34C143.52 209.813 146.28 204.677 146.28 197.93C146.28 193.637 144.67 190.033 141.45 187.12C138.23 184.207 133.86 181.677 128.34 179.53C122.973 177.23 117.07 175.083 110.63 173.09C104.19 170.943 97.75 168.567 91.31 165.96C84.87 163.2 78.89 159.98 73.37 156.3C68.0033 152.467 63.71 147.867 60.49 142.5C57.27 137.133 55.66 130.54 55.66 122.72C55.66 112.6 58.1133 103.86 63.02 96.5C67.9267 89.14 74.9033 83.4667 83.95 79.48C93.15 75.4933 103.73 73.5 115.69 73.5C124.89 73.5 133.093 74.5733 140.3 76.72C147.507 78.7133 154.1 81.55 160.08 85.23C166.213 88.91 171.887 93.1267 177.1 97.88L160.08 118.12C155.633 114.44 151.033 111.373 146.28 108.92C141.68 106.313 136.927 104.32 132.02 102.94C127.267 101.56 122.207 100.87 116.84 100.87C108.407 100.87 101.507 102.48 96.14 105.7C90.7733 108.92 88.09 113.827 88.09 120.42C88.09 124.56 89.7 128.01 92.92 130.77C96.14 133.377 100.433 135.753 105.8 137.9C111.32 140.047 117.3 142.193 123.74 144.34C130.18 146.333 136.62 148.633 143.06 151.24C149.5 153.847 155.403 157.067 160.77 160.9C166.29 164.58 170.66 169.18 173.88 174.7C177.1 180.22 178.71 186.967 178.71 194.94C178.71 205.06 176.103 213.953 170.89 221.62C165.83 229.287 158.393 235.267 148.58 239.56C138.767 243.853 126.73 246 112.47 246ZM105.11 84.54V44.75H127.65V84.54H105.11ZM105.11 274.75V232.43H127.65V274.75H105.11Z"/>
</mask>
<path d="M112.47 246C105.877 246 98.5933 245.157 90.62 243.47C82.8 241.783 75.1333 239.253 67.62 235.88C60.26 232.353 53.8967 227.983 48.53 222.77L63.71 200C70.9167 206.287 78.7367 210.963 87.17 214.03C95.6033 217.097 104.037 218.63 112.47 218.63C124.123 218.63 132.633 216.867 138 213.34C143.52 209.813 146.28 204.677 146.28 197.93C146.28 193.637 144.67 190.033 141.45 187.12C138.23 184.207 133.86 181.677 128.34 179.53C122.973 177.23 117.07 175.083 110.63 173.09C104.19 170.943 97.75 168.567 91.31 165.96C84.87 163.2 78.89 159.98 73.37 156.3C68.0033 152.467 63.71 147.867 60.49 142.5C57.27 137.133 55.66 130.54 55.66 122.72C55.66 112.6 58.1133 103.86 63.02 96.5C67.9267 89.14 74.9033 83.4667 83.95 79.48C93.15 75.4933 103.73 73.5 115.69 73.5C124.89 73.5 133.093 74.5733 140.3 76.72C147.507 78.7133 154.1 81.55 160.08 85.23C166.213 88.91 171.887 93.1267 177.1 97.88L160.08 118.12C155.633 114.44 151.033 111.373 146.28 108.92C141.68 106.313 136.927 104.32 132.02 102.94C127.267 101.56 122.207 100.87 116.84 100.87C108.407 100.87 101.507 102.48 96.14 105.7C90.7733 108.92 88.09 113.827 88.09 120.42C88.09 124.56 89.7 128.01 92.92 130.77C96.14 133.377 100.433 135.753 105.8 137.9C111.32 140.047 117.3 142.193 123.74 144.34C130.18 146.333 136.62 148.633 143.06 151.24C149.5 153.847 155.403 157.067 160.77 160.9C166.29 164.58 170.66 169.18 173.88 174.7C177.1 180.22 178.71 186.967 178.71 194.94C178.71 205.06 176.103 213.953 170.89 221.62C165.83 229.287 158.393 235.267 148.58 239.56C138.767 243.853 126.73 246 112.47 246ZM105.11 84.54V44.75H127.65V84.54H105.11ZM105.11 274.75V232.43H127.65V274.75H105.11Z" fill="#E48928"/>
<path d="M90.62 243.47L89.5658 248.358L89.5755 248.36L89.5852 248.362L90.62 243.47ZM67.62 235.88L65.4594 240.389L65.5154 240.416L65.5721 240.441L67.62 235.88ZM48.53 222.77L44.3698 219.997L42.0622 223.458L45.0461 226.356L48.53 222.77ZM63.71 200L66.9969 196.232L62.7073 192.49L59.5498 197.227L63.71 200ZM87.17 214.03L88.8787 209.331L87.17 214.03ZM138 213.34L135.308 209.127L135.281 209.144L135.254 209.161L138 213.34ZM141.45 187.12L138.095 190.828L138.095 190.828L141.45 187.12ZM128.34 179.53L126.37 184.126L126.449 184.159L126.528 184.19L128.34 179.53ZM110.63 173.09L109.049 177.833L109.1 177.851L109.152 177.866L110.63 173.09ZM91.31 165.96L89.3404 170.556L89.387 170.576L89.4341 170.595L91.31 165.96ZM73.37 156.3L70.4638 160.369L70.5294 160.416L70.5965 160.46L73.37 156.3ZM83.95 79.48L81.962 74.8922L81.9478 74.8984L81.9337 74.9046L83.95 79.48ZM140.3 76.72L138.873 81.5119L138.92 81.5259L138.967 81.539L140.3 76.72ZM160.08 85.23L157.46 89.4883L157.483 89.503L157.508 89.5175L160.08 85.23ZM177.1 97.88L180.927 101.098L184.018 97.4216L180.469 94.1852L177.1 97.88ZM160.08 118.12L156.892 121.972L160.714 125.135L163.907 121.338L160.08 118.12ZM146.28 108.92L143.815 113.27L143.9 113.318L143.987 113.363L146.28 108.92ZM132.02 102.94L130.626 107.742L130.646 107.748L130.666 107.753L132.02 102.94ZM96.14 105.7L98.7125 109.987L98.7125 109.987L96.14 105.7ZM92.92 130.77L89.6661 134.566L89.7194 134.612L89.774 134.656L92.92 130.77ZM105.8 137.9L103.943 142.542L103.965 142.551L103.988 142.56L105.8 137.9ZM123.74 144.34L122.159 149.083L122.21 149.1L122.262 149.116L123.74 144.34ZM143.06 151.24L144.936 146.605L143.06 151.24ZM160.77 160.9L157.864 164.969L157.929 165.016L157.997 165.06L160.77 160.9ZM173.88 174.7L178.199 172.181L173.88 174.7ZM170.89 221.62L166.755 218.808L166.736 218.837L166.717 218.866L170.89 221.62ZM105.11 84.54H100.11V89.54H105.11V84.54ZM105.11 44.75V39.75H100.11V44.75H105.11ZM127.65 44.75H132.65V39.75H127.65V44.75ZM127.65 84.54V89.54H132.65V84.54H127.65ZM105.11 274.75H100.11V279.75H105.11V274.75ZM105.11 232.43V227.43H100.11V232.43H105.11ZM127.65 232.43H132.65V227.43H127.65V232.43ZM127.65 274.75V279.75H132.65V274.75H127.65ZM112.47 246V241C106.295 241 99.3642 240.209 91.6548 238.578L90.62 243.47L89.5852 248.362C97.8225 250.104 105.459 251 112.47 251V246ZM90.62 243.47L91.6742 238.582C84.2059 236.972 76.8718 234.553 69.668 231.319L67.62 235.88L65.5721 240.441C73.3949 243.954 81.3941 246.595 89.5658 248.358L90.62 243.47ZM67.62 235.88L69.7806 231.371C62.8646 228.057 56.9587 223.987 52.0139 219.184L48.53 222.77L45.0461 226.356C50.8347 231.98 57.6554 236.65 65.4594 240.389L67.62 235.88ZM48.53 222.77L52.6903 225.544L67.8703 202.774L63.71 200L59.5498 197.227L44.3698 219.997L48.53 222.77ZM63.71 200L60.4232 203.768C68.0632 210.433 76.4119 215.438 85.4613 218.729L87.17 214.03L88.8787 209.331C81.0615 206.488 73.7701 202.141 66.9969 196.232L63.71 200ZM87.17 214.03L85.4613 218.729C94.407 221.982 103.417 223.63 112.47 223.63V218.63V213.63C104.656 213.63 96.7997 212.211 88.8787 209.331L87.17 214.03ZM112.47 218.63V223.63C124.412 223.63 134.135 221.863 140.746 217.519L138 213.34L135.254 209.161C131.132 211.87 123.835 213.63 112.47 213.63V218.63ZM138 213.34L140.692 217.554C147.701 213.075 151.28 206.321 151.28 197.93H146.28H141.28C141.28 203.032 139.339 206.551 135.308 209.127L138 213.34ZM146.28 197.93H151.28C151.28 192.206 149.059 187.261 144.805 183.412L141.45 187.12L138.095 190.828C140.281 192.805 141.28 195.068 141.28 197.93H146.28ZM141.45 187.12L144.805 183.412C141.001 179.971 136.047 177.162 130.152 174.87L128.34 179.53L126.528 184.19C131.673 186.191 135.459 188.442 138.095 190.828L141.45 187.12ZM128.34 179.53L130.31 174.934C124.76 172.556 118.69 170.351 112.108 168.314L110.63 173.09L109.152 177.866C115.45 179.816 121.186 181.904 126.37 184.126L128.34 179.53ZM110.63 173.09L112.211 168.347C105.873 166.234 99.5311 163.894 93.186 161.325L91.31 165.96L89.4341 170.595C95.9689 173.24 102.507 175.653 109.049 177.833L110.63 173.09ZM91.31 165.96L93.2796 161.364C87.1047 158.718 81.3956 155.641 76.1435 152.14L73.37 156.3L70.5965 160.46C76.3844 164.319 82.6353 167.682 89.3404 170.556L91.31 165.96ZM73.37 156.3L76.2762 152.231C71.4371 148.775 67.6257 144.675 64.7775 139.928L60.49 142.5L56.2025 145.072C59.7943 151.059 64.5695 156.158 70.4638 160.369L73.37 156.3ZM60.49 142.5L64.7775 139.928C62.1269 135.51 60.66 129.858 60.66 122.72H55.66H50.66C50.66 131.222 52.4131 138.757 56.2025 145.072L60.49 142.5ZM55.66 122.72H60.66C60.66 113.441 62.8971 105.698 67.1803 99.2735L63.02 96.5L58.8598 93.7265C53.3296 102.022 50.66 111.759 50.66 122.72H55.66ZM63.02 96.5L67.1803 99.2735C71.4978 92.7971 77.6855 87.7046 85.9663 84.0554L83.95 79.48L81.9337 74.9046C72.1212 79.2287 64.3555 85.4829 58.8598 93.7265L63.02 96.5ZM83.95 79.48L85.9381 84.0678C94.4017 80.4002 104.284 78.5 115.69 78.5V73.5V68.5C103.176 68.5 91.8984 70.5864 81.962 74.8922L83.95 79.48ZM115.69 73.5V78.5C124.51 78.5 132.219 79.53 138.873 81.5119L140.3 76.72L141.727 71.9281C133.968 69.6167 125.27 68.5 115.69 68.5V73.5ZM140.3 76.72L138.967 81.539C145.75 83.4151 151.905 86.0703 157.46 89.4883L160.08 85.23L162.701 80.9717C156.295 77.0297 149.264 74.0116 141.633 71.9009L140.3 76.72ZM160.08 85.23L157.508 89.5175C163.36 93.0292 168.766 97.048 173.731 101.575L177.1 97.88L180.469 94.1852C175.007 89.2053 169.066 84.7908 162.653 80.9425L160.08 85.23ZM177.1 97.88L173.273 94.662L156.253 114.902L160.08 118.12L163.907 121.338L180.927 101.098L177.1 97.88ZM160.08 118.12L163.268 114.268C158.567 110.377 153.669 107.107 148.573 104.477L146.28 108.92L143.987 113.363C148.398 115.64 152.7 118.503 156.892 121.972L160.08 118.12ZM146.28 108.92L148.745 104.57C143.808 101.772 138.682 99.6198 133.374 98.1268L132.02 102.94L130.666 107.753C135.171 109.02 139.552 110.855 143.815 113.27L146.28 108.92ZM132.02 102.94L133.414 98.1383C128.171 96.6162 122.639 95.87 116.84 95.87V100.87V105.87C121.774 105.87 126.362 106.504 130.626 107.742L132.02 102.94ZM116.84 100.87V95.87C107.805 95.87 99.9363 97.5913 93.5675 101.413L96.14 105.7L98.7125 109.987C103.077 107.369 109.009 105.87 116.84 105.87V100.87ZM96.14 105.7L93.5675 101.413C86.5992 105.594 83.09 112.185 83.09 120.42H88.09H93.09C93.09 115.469 94.9475 112.246 98.7125 109.987L96.14 105.7ZM88.09 120.42H83.09C83.09 126.06 85.3689 130.883 89.6661 134.566L92.92 130.77L96.174 126.974C94.0311 125.137 93.09 123.06 93.09 120.42H88.09ZM92.92 130.77L89.774 134.656C93.5033 137.675 98.2802 140.277 103.943 142.542L105.8 137.9L107.657 133.258C102.586 131.229 98.7768 129.078 96.066 126.884L92.92 130.77ZM105.8 137.9L103.988 142.56C109.594 144.74 115.652 146.915 122.159 149.083L123.74 144.34L125.321 139.597C118.948 137.472 113.046 135.353 107.612 133.24L105.8 137.9ZM123.74 144.34L122.262 149.116C128.563 151.067 134.871 153.319 141.184 155.875L143.06 151.24L144.936 146.605C138.369 143.947 131.797 141.6 125.218 139.564L123.74 144.34ZM143.06 151.24L141.184 155.875C147.279 158.342 152.834 161.376 157.864 164.969L160.77 160.9L163.676 156.831C157.973 152.758 151.721 149.352 144.936 146.605L143.06 151.24ZM160.77 160.9L157.997 165.06C162.908 168.335 166.739 172.382 169.561 177.219L173.88 174.7L178.199 172.181C174.581 165.978 169.672 160.825 163.544 156.74L160.77 160.9ZM173.88 174.7L169.561 177.219C172.237 181.807 173.71 187.635 173.71 194.94H178.71H183.71C183.71 186.298 181.963 178.633 178.199 172.181L173.88 174.7ZM178.71 194.94H173.71C173.71 204.153 171.353 212.047 166.755 218.808L170.89 221.62L175.025 224.432C180.854 215.86 183.71 205.967 183.71 194.94H178.71ZM170.89 221.62L166.717 218.866C162.272 225.601 155.655 231.007 146.576 234.979L148.58 239.56L150.584 244.141C161.132 239.526 169.388 232.973 175.063 224.374L170.89 221.62ZM148.58 239.56L146.576 234.979C137.567 238.921 126.257 241 112.47 241V246V251C127.203 251 139.967 248.786 150.584 244.141L148.58 239.56ZM105.11 84.54H110.11V44.75H105.11H100.11V84.54H105.11ZM105.11 44.75V49.75H127.65V44.75V39.75H105.11V44.75ZM127.65 44.75H122.65V84.54H127.65H132.65V44.75H127.65ZM127.65 84.54V79.54H105.11V84.54V89.54H127.65V84.54ZM105.11 274.75H110.11V232.43H105.11H100.11V274.75H105.11ZM105.11 232.43V237.43H127.65V232.43V227.43H105.11V232.43ZM127.65 232.43H122.65V274.75H127.65H132.65V232.43H127.65ZM127.65 274.75V269.75H105.11V274.75V279.75H127.65V274.75Z" fill="#E48928" mask="url(#path-1-outside-1_144_64)"/>
<path d="M211.075 70.163H203.159C200.159 61.3023 190.989 55.0656 178.864 51.6639C164.289 47.5727 147.929 48.0566 138.032 54.0716H97.5049C87.7073 48.4965 72.1184 47.8219 58.0079 51.4026C45.3707 54.6109 35.7379 60.9007 32.7402 70.163H24.9257C23.6733 70.163 22.7541 71.145 23.0587 72.157L25.1057 78.9667C25.3202 79.68 26.0883 80.1809 26.9715 80.1809H32.0726C32.5669 83.3904 33.6757 86.8287 35.5457 90.5183C43.0403 105.311 60.2033 113.266 79.9158 106.519C93.526 101.861 102.596 91.0468 105.956 80.1812H130.218C133.423 90.8186 141.977 101.377 155.045 106.224C174.514 113.446 191.947 105.912 199.955 91.3081C202.136 87.3305 203.415 83.6241 203.948 80.1809H209.03C209.912 80.1809 210.681 79.6803 210.896 78.9667L212.941 72.157C213.246 71.145 212.328 70.163 211.075 70.163ZM189.433 83.3384L172.889 58.9996C178.567 60.1097 186.059 62.532 189.51 67.7658C192.118 71.7205 192.093 76.9603 189.433 83.3384ZM106.156 63.531H130.003C129.813 64.0678 129.592 64.5867 129.453 65.1551C129.066 66.7538 128.867 68.4361 128.813 70.163H107.364C107.319 68.7698 107.2 67.3984 106.929 66.0888C106.743 65.195 106.471 64.3508 106.156 63.531Z" fill="#124261"/>
<path d="M269.736 278.127L263.956 192.413C263.622 187.467 259.048 183.371 253.738 183.264L206.598 182.33L212.407 268.484C215.812 270.747 218.561 273.757 220.365 277.248C221.69 279.81 222.455 282.512 222.642 285.28C222.66 285.569 222.659 285.853 222.666 286.138L260.727 286.893C266.037 286.999 270.069 283.075 269.736 278.127Z" fill="#227461"/>
<path d="M215.404 279.158C213.96 276.368 211.718 273.99 208.977 272.282C206.238 270.575 202.971 269.534 199.573 269.47C197.309 269.425 195.156 269.811 193.232 270.552C190.344 271.663 187.967 273.557 186.354 275.973C184.741 278.384 183.898 281.346 184.114 284.515C184.256 286.623 184.855 288.666 185.816 290.526C187.258 293.316 189.502 295.694 192.242 297.405C194.981 299.112 198.247 300.15 201.646 300.214C203.908 300.261 206.062 299.873 207.986 299.131C210.874 298.021 213.252 296.127 214.863 293.713C216.478 291.3 217.32 288.337 217.104 285.169C216.963 283.061 216.363 281.017 215.404 279.158ZM204.343 289.637C203.402 290.232 202.277 290.563 200.994 290.539C200.136 290.521 199.334 290.347 198.584 290.047C197.466 289.596 196.473 288.848 195.752 287.923C195.029 286.995 194.579 285.918 194.496 284.721C194.442 283.92 194.563 283.188 194.825 282.515C195.217 281.506 195.938 280.643 196.876 280.047C197.817 279.452 198.942 279.121 200.225 279.144C201.083 279.162 201.886 279.336 202.633 279.638C203.753 280.087 204.746 280.835 205.468 281.761C206.19 282.688 206.642 283.766 206.724 284.962C206.777 285.764 206.656 286.499 206.394 287.171C206.002 288.177 205.28 289.042 204.343 289.637Z" fill="#227461"/>
<path d="M207.632 265.994L198.184 125.874C198.4 125.712 198.61 125.539 198.806 125.347L199.988 124.198C202.597 121.658 202.315 117.449 199.354 114.799L198.014 113.598C195.054 110.948 190.539 110.856 187.928 113.398L186.746 114.55C184.137 117.087 184.421 121.295 187.38 123.947L188.72 125.147C189.091 125.481 189.487 125.77 189.899 126.023L199.224 264.311C202.107 264.367 204.95 264.947 207.632 265.994Z" fill="#227461"/>
</svg>
